<svg width="50" height="50" viewBox="0 0 50 50" fill="none" xmlns="http://www.w3.org/2000/svg">
<circle cx="25" cy="25" r="25" fill="white"/>
<path d="M12.151 29.3209C13.879 29.3017 15.6109 29.2885 17.3301 29.1501C19.1073 29.0069 20.8821 28.7711 22.6379 28.474C24.0769 28.231 25.4881 27.84 26.9094 27.5091C27.634 27.3407 28.3623 27.1807 29.0768 26.9773C29.8164 26.768 30.5435 26.519 31.2706 26.2723C32.4685 25.8645 33.6702 25.4675 34.8529 25.0236C35.8526 24.6482 36.8397 24.2379 37.8104 23.7976C39.2494 23.1444 40.6694 22.4526 42.0958 21.7716C42.0996 21.7692 42.1034 21.7668 42.1072 21.7656L42.5048 26.3301C42.4543 26.3493 42.4038 26.3698 42.3533 26.3902C41.3561 26.7825 40.34 27.1301 39.3188 27.4634C37.9707 27.9037 36.6201 28.3428 35.253 28.723C34.1069 29.0418 32.9418 29.3101 31.7704 29.5399C29.7786 29.9309 27.7892 30.3784 25.7747 30.6154C22.0459 31.0534 18.302 31.3987 14.5354 31.0666C12.5574 30.8922 10.5694 30.761 8.60906 30.4675C8.11172 30.3929 7.3998 30.21 6.90625 30.1186L7.02112 29.0382C7.6106 29.1056 8.20134 29.1633 8.79208 29.2127C9.90666 29.3053 11.0301 29.3354 12.1497 29.3233L12.151 29.3209Z" fill="#FFCA00"/>
<path d="M13.4112 28.6451C14.3617 28.301 15.3172 27.9618 16.2058 27.507C17.1248 27.0354 17.9983 26.4784 18.8314 25.8648C19.5142 25.3619 20.1126 24.7255 20.745 24.1432C21.0668 23.846 21.395 23.5573 21.6954 23.2301C22.006 22.8908 22.2925 22.5178 22.5778 22.1461C23.0486 21.5337 23.527 20.9286 23.9726 20.2837C24.3487 19.7387 24.7022 19.1625 25.0316 18.5609C25.5201 17.6694 25.9808 16.7443 26.4479 15.8287C26.4479 15.8263 26.4504 15.8227 26.4504 15.8203L28.8399 20.0804C28.821 20.1093 28.8033 20.1369 28.7843 20.1658C28.417 20.7265 28.0182 21.2474 27.6104 21.7575C27.0714 22.43 26.5299 23.1013 25.9518 23.7209C25.4671 24.2406 24.947 24.7147 24.4068 25.1538C23.4866 25.9009 22.5942 26.7009 21.5894 27.3049C19.7276 28.4237 17.8127 29.4572 15.5646 29.8518C14.3831 30.0587 13.218 30.3102 11.9899 30.3992C11.6781 30.422 11.3638 30.4341 11.0457 30.4401L10.4297 29.3405C10.7894 29.2936 11.1441 29.237 11.495 29.172C12.1577 29.0493 12.7964 28.8665 13.4112 28.6439V28.6451Z" fill="#FFCA00"/>
<path d="M18.5902 28.8468C19.3374 28.688 20.0885 28.534 20.8017 28.285C21.5401 28.0287 22.2545 27.7015 22.945 27.3297C23.5105 27.0254 24.0293 26.6115 24.5658 26.2434C24.8397 26.0557 25.1174 25.8728 25.3774 25.6599C25.6475 25.4397 25.9025 25.1907 26.1587 24.9428C26.5791 24.535 27.0045 24.1332 27.4097 23.6977C27.7517 23.3295 28.0799 22.9373 28.3942 22.5223C28.86 21.9075 29.3068 21.2662 29.7587 20.631C29.7587 20.6298 29.7613 20.6274 29.7625 20.625L31.0614 24.0465C31.0437 24.0658 31.0273 24.085 31.0109 24.1043C30.6739 24.4845 30.3167 24.8322 29.9556 25.1702C29.4772 25.6166 28.9989 26.0617 28.4977 26.4635C28.0774 26.8004 27.6369 27.1012 27.1837 27.3731C26.4137 27.835 25.6576 28.3403 24.8397 28.688C23.325 29.3317 21.7799 29.9043 20.0595 29.9681C19.1557 30.0018 18.2582 30.0679 17.333 30.009C17.0982 29.9934 16.8621 29.9705 16.6248 29.9428L16.2891 29.0598C16.5617 29.061 16.8331 29.0562 17.1032 29.0441C17.6107 29.0213 18.108 28.9503 18.5914 28.8468H18.5902Z" fill="#FFCA00"/>
</svg>
