<svg width="40" height="40" viewBox="0 0 40 40" fill="none" xmlns="http://www.w3.org/2000/svg">
<circle cx="20" cy="20" r="20" fill="#4340D8"/>
<path d="M9.71923 23.4583C11.1017 23.4429 12.4871 23.4323 13.8625 23.3216C15.2843 23.2071 16.7041 23.0185 18.1088 22.7807C19.26 22.5863 20.3889 22.2735 21.526 22.0088C22.1056 21.8741 22.6883 21.7461 23.2598 21.5834C23.8516 21.416 24.4332 21.2167 25.0149 21.0194C25.9732 20.6932 26.9346 20.3756 27.8808 20.0204C28.6805 19.7201 29.4702 19.3919 30.2468 19.0397C31.3979 18.517 32.534 17.9636 33.6751 17.4189C33.6781 17.4169 33.6811 17.415 33.6842 17.4141L34.0023 21.0656C33.9619 21.081 33.9215 21.0974 33.8811 21.1138C33.0833 21.4275 32.2704 21.7057 31.4535 21.9723C30.375 22.3245 29.2945 22.6758 28.2009 22.98C27.284 23.235 26.3519 23.4497 25.4148 23.6335C23.8213 23.9463 22.2298 24.3043 20.6182 24.4939C17.6352 24.8443 14.6401 25.1205 11.6268 24.8548C10.0444 24.7153 8.45393 24.6104 6.88568 24.3755C6.48782 24.3159 5.91828 24.1696 5.52344 24.0964L5.61533 23.2321C6.08692 23.286 6.55951 23.3322 7.0321 23.3717C7.92377 23.4458 8.82251 23.4699 9.71822 23.4602L9.71923 23.4583Z" fill="#FFCA00"/>
<path d="M10.7289 22.9161C11.4893 22.6408 12.2538 22.3694 12.9647 22.0056C13.6998 21.6283 14.3986 21.1827 15.0651 20.6918C15.6114 20.2895 16.09 19.7804 16.596 19.3146C16.8535 19.0768 17.116 18.8458 17.3564 18.584C17.6048 18.3126 17.834 18.0143 18.0622 17.7169C18.4389 17.227 18.8216 16.7429 19.1781 16.227C19.479 15.791 19.7617 15.33 20.0253 14.8487C20.4161 14.1356 20.7847 13.3954 21.1583 12.663C21.1583 12.6611 21.1603 12.6582 21.1603 12.6562L23.0719 16.0643C23.0568 16.0874 23.0426 16.1096 23.0275 16.1327C22.7336 16.5812 22.4145 16.9979 22.0883 17.406C21.6572 17.944 21.2239 18.4811 20.7614 18.9767C20.3737 19.3925 19.9576 19.7717 19.5254 20.123C18.7893 20.7207 18.0753 21.3607 17.2715 21.8439C15.782 22.739 14.2502 23.5657 12.4517 23.8814C11.5065 24.047 10.5744 24.2481 9.59188 24.3193C9.34246 24.3376 9.09101 24.3473 8.83654 24.3521L8.34375 23.4724C8.63155 23.4348 8.91531 23.3896 9.19603 23.3376C9.72619 23.2395 10.2372 23.0932 10.7289 22.9151V22.9161Z" fill="#FFCA00"/>
<path d="M14.8721 23.0775C15.47 22.9504 16.0708 22.8272 16.6413 22.628C17.2321 22.423 17.8036 22.1612 18.356 21.8638C18.8084 21.6203 19.2234 21.2892 19.6526 20.9947C19.8717 20.8445 20.0939 20.6983 20.3019 20.5279C20.518 20.3518 20.722 20.1525 20.927 19.9543C21.2633 19.628 21.6036 19.3065 21.9277 18.9581C22.2014 18.6636 22.4639 18.3498 22.7154 18.0178C23.088 17.526 23.4455 17.013 23.807 16.5048C23.807 16.5038 23.809 16.5019 23.81 16.5L24.8491 19.2372C24.835 19.2526 24.8219 19.268 24.8087 19.2834C24.5391 19.5876 24.2533 19.8657 23.9645 20.1362C23.5818 20.4932 23.1991 20.8494 22.7982 21.1708C22.4619 21.4403 22.1095 21.6809 21.747 21.8984C21.131 22.268 20.5261 22.6723 19.8717 22.9504C18.66 23.4653 17.4239 23.9235 16.0476 23.9745C15.3245 24.0014 14.6066 24.0544 13.8664 24.0072C13.6785 23.9947 13.4897 23.9764 13.2999 23.9543L13.0312 23.2478C13.2494 23.2488 13.4665 23.2449 13.6826 23.2353C14.0885 23.217 14.4864 23.1602 14.8732 23.0775H14.8721Z" fill="#FFCA00"/>
</svg>
