<svg width="80" height="81" viewBox="0 0 80 81" fill="none" xmlns="http://www.w3.org/2000/svg">
<circle cx="40" cy="40.043" r="40" fill="#4340D8"/>
<path d="M19.4463 46.9635C22.2111 46.9327 24.9821 46.9115 27.7328 46.6902C30.5764 46.4611 33.416 46.0838 36.2254 45.6084C38.5277 45.2195 40.7857 44.5939 43.0598 44.0646C44.2191 43.7951 45.3844 43.5391 46.5275 43.2138C47.711 42.8788 48.8743 42.4804 50.0376 42.0858C51.9542 41.4332 53.8769 40.798 55.7693 40.0877C57.3689 39.4871 58.9482 38.8307 60.5013 38.1262C62.8037 37.081 65.0758 35.9741 67.358 34.8846C67.364 34.8808 67.3701 34.8769 67.3762 34.875L68.0123 42.1782C67.9316 42.2089 67.8508 42.2417 67.77 42.2744C66.1745 42.9019 64.5487 43.4582 62.9148 43.9914C60.7578 44.6959 58.5968 45.3985 56.4096 46.0068C54.5757 46.5169 52.7116 46.9462 50.8374 47.3138C47.6504 47.9394 44.4675 48.6555 41.2441 49.0347C35.2782 49.7354 29.2879 50.2878 23.2613 49.7566C20.0966 49.4775 16.9157 49.2676 13.7792 48.798C12.9834 48.6786 11.8444 48.386 11.0547 48.2397L11.2385 46.5111C12.1816 46.6189 13.1268 46.7113 14.072 46.7903C15.8554 46.9385 17.6528 46.9866 19.4442 46.9674L19.4463 46.9635Z" fill="#FFCA00"/>
<path d="M21.4735 45.8751C22.9943 45.3246 24.5231 44.7818 25.945 44.0542C27.4153 43.2996 28.8128 42.4083 30.1458 41.4266C31.2384 40.622 32.1957 39.6037 33.2075 38.6721C33.7226 38.1966 34.2477 37.7346 34.7283 37.2111C35.2252 36.6682 35.6836 36.0715 36.1401 35.4767C36.8934 34.4969 37.6588 33.5287 38.3717 32.4969C38.9736 31.6249 39.5391 30.7029 40.0662 29.7404C40.8478 28.3141 41.585 26.8338 42.3322 25.3689C42.3322 25.3651 42.3363 25.3593 42.3363 25.3555L46.1594 32.1716C46.1291 32.2178 46.1009 32.2621 46.0706 32.3083C45.4829 33.2053 44.8447 34.0388 44.1923 34.855C43.3299 35.931 42.4635 37.0051 41.5385 37.9964C40.763 38.828 39.9309 39.5864 39.0665 40.289C37.5942 41.4844 36.1663 42.7645 34.5587 43.7308C31.5797 45.5209 28.5159 47.1745 24.919 47.8058C23.0286 48.1369 21.1645 48.5392 19.1994 48.6817C18.7005 48.7182 18.1977 48.7375 17.6887 48.7471L16.7031 46.9877C17.2787 46.9127 17.8462 46.8222 18.4077 46.7182C19.468 46.5219 20.4899 46.2293 21.4735 45.8732V45.8751Z" fill="#FFCA00"/>
<path d="M29.7599 46.1901C30.9555 45.936 32.1572 45.6896 33.2983 45.2911C34.4798 44.8811 35.6229 44.3575 36.7276 43.7627C37.6324 43.2757 38.4625 42.6136 39.3208 42.0245C39.7591 41.7243 40.2034 41.4317 40.6195 41.091C41.0517 40.7387 41.4596 40.3402 41.8696 39.9437C42.5421 39.2912 43.2228 38.6482 43.8711 37.9514C44.4184 37.3624 44.9435 36.7349 45.4464 36.0708C46.1916 35.0871 46.9066 34.0611 47.6296 33.0448C47.6296 33.0429 47.6336 33.039 47.6357 33.0352L49.7139 38.5096C49.6856 38.5404 49.6593 38.5712 49.6331 38.602C49.0938 39.2103 48.5223 39.7666 47.9447 40.3075C47.1792 41.0217 46.4138 41.7339 45.612 42.3768C44.9395 42.9158 44.2346 43.397 43.5096 43.832C42.2776 44.5712 41.0678 45.3797 39.7591 45.936C37.3355 46.9658 34.8635 47.8821 32.1108 47.9841C30.6647 48.038 29.2287 48.1439 27.7484 48.0495C27.3727 48.0245 26.995 47.9879 26.6153 47.9437L26.0781 46.5308C26.5144 46.5327 26.9486 46.525 27.3808 46.5058C28.1927 46.4692 28.9884 46.3556 29.7619 46.1901H29.7599Z" fill="#FFCA00"/>
</svg>
