<svg width="129" height="73" viewBox="0 0 129 73" fill="none" xmlns="http://www.w3.org/2000/svg">
<path d="M90.0637 24.9227C92.2501 24.8986 94.4413 24.882 96.6165 24.7086C98.8652 24.5291 101.111 24.2336 103.332 23.8611C105.153 23.5565 106.939 23.0665 108.737 22.6518C109.654 22.4407 110.575 22.2401 111.479 21.9853C112.415 21.7229 113.335 21.4108 114.255 21.1017C115.77 20.5905 117.291 20.0929 118.787 19.5365C120.052 19.066 121.301 18.5518 122.529 18C124.35 17.1812 126.147 16.3141 127.952 15.4607C127.956 15.4576 127.961 15.4546 127.966 15.4531L128.469 21.1741C128.405 21.1982 128.341 21.2238 128.277 21.2495C127.016 21.741 125.73 22.1768 124.438 22.5945C122.732 23.1464 121.023 23.6968 119.294 24.1733C117.843 24.5728 116.369 24.9091 114.887 25.1971C112.367 25.6872 109.85 26.2481 107.301 26.5452C102.583 27.094 97.8463 27.5268 93.0806 27.1106C90.5779 26.892 88.0625 26.7276 85.5822 26.3597C84.953 26.2662 84.0522 26.037 83.4277 25.9224L83.5731 24.5683C84.3189 24.6528 85.0664 24.7251 85.8138 24.787C87.224 24.9031 88.6454 24.9408 90.0621 24.9257L90.0637 24.9227Z" fill="#FFCA00"/>
<path d="M91.6591 24.0741C92.8617 23.6429 94.0707 23.2176 95.195 22.6477C96.3577 22.0566 97.4629 21.3584 98.517 20.5894C99.381 19.9591 100.138 19.1614 100.938 18.4316C101.345 18.0591 101.761 17.6972 102.141 17.2871C102.534 16.8619 102.896 16.3944 103.257 15.9285C103.853 15.161 104.458 14.4025 105.022 13.5943C105.498 12.9112 105.945 12.1889 106.362 11.435C106.98 10.3176 107.563 9.15806 108.154 8.01056C108.154 8.00754 108.157 8.00302 108.157 8L111.18 13.3394C111.156 13.3756 111.134 13.4103 111.11 13.4465C110.645 14.1492 110.141 14.8021 109.625 15.4414C108.943 16.2844 108.258 17.1258 107.526 17.9023C106.913 18.5537 106.255 19.1478 105.571 19.6982C104.407 20.6346 103.278 21.6374 102.007 22.3943C99.6509 23.7967 97.2281 25.0919 94.3837 25.5865C92.8888 25.8459 91.4147 26.161 89.8607 26.2726C89.4662 26.3013 89.0686 26.3164 88.6661 26.3239L87.8867 24.9457C88.3419 24.8869 88.7907 24.816 89.2347 24.7346C90.0731 24.5808 90.8813 24.3516 91.6591 24.0726V24.0741Z" fill="#FFCA00"/>
<path d="M98.2074 24.3245C99.1529 24.1254 100.103 23.9324 101.006 23.6203C101.94 23.2991 102.844 22.8889 103.717 22.423C104.433 22.0415 105.089 21.5228 105.768 21.0614C106.115 20.8262 106.466 20.597 106.795 20.3301C107.137 20.0541 107.459 19.742 107.784 19.4314C108.315 18.9202 108.854 18.4165 109.366 17.8707C109.799 17.4093 110.214 16.9177 110.612 16.3975C111.201 15.6269 111.767 14.8232 112.338 14.0271C112.338 14.0256 112.342 14.0225 112.343 14.0195L113.987 18.308C113.964 18.3321 113.944 18.3562 113.923 18.3804C113.496 18.8568 113.044 19.2926 112.588 19.7163C111.982 20.2758 111.377 20.8337 110.743 21.3373C110.211 21.7595 109.654 22.1365 109.08 22.4773C108.106 23.0563 107.15 23.6896 106.115 24.1254C104.198 24.9321 102.243 25.6499 100.066 25.7298C98.9229 25.772 97.7874 25.855 96.6167 25.7811C96.3196 25.7615 96.021 25.7328 95.7207 25.6981L95.2959 24.5914C95.6409 24.5929 95.9842 24.5868 96.326 24.5718C96.968 24.5431 97.5973 24.4541 98.209 24.3245H98.2074Z" fill="#FFCA00"/>
<path d="M6.54752 47.4686L0.0241346 30.2503C-0.0705235 30.0019 0.12521 29.7413 0.402767 29.7413H5.14851C5.32339 29.7413 5.47901 29.8489 5.53195 30.0064L9.04714 40.478C9.16586 40.8309 9.69531 40.8324 9.81564 40.478L13.3661 30.0034C13.4191 29.8458 13.5747 29.7383 13.7496 29.7383H18.1841C18.4632 29.7383 18.6573 30.0003 18.5627 30.2472L12.0024 47.4656C11.9446 47.6171 11.7938 47.717 11.6238 47.717H6.92776C6.7577 47.717 6.60528 47.6156 6.54913 47.4641L6.54752 47.4686Z" fill="#4340D8"/>
<path d="M21.9478 47.2908V30.1724C21.9478 29.9346 22.1515 29.7422 22.4034 29.7422H26.5234C26.7753 29.7422 26.9791 29.9346 26.9791 30.1724V47.2908C26.9791 47.5286 26.7753 47.7209 26.5234 47.7209H22.4034C22.1515 47.7209 21.9478 47.5286 21.9478 47.2908Z" fill="#4340D8"/>
<path d="M42.6092 47.3675C42.5803 47.2554 42.553 47.1373 42.5306 47.0176C42.4632 46.6783 42.0364 46.5223 41.7492 46.7359C40.5604 47.6205 38.8582 48.184 36.7917 48.184C32.5658 48.184 30.6021 46.2239 30.6021 43.3746C30.6021 38.3153 34.1878 37.7457 39.1309 37.1035C41.584 36.7823 42.2627 36.3203 42.2627 35.1085C42.2627 33.9679 41.0546 33.2908 39.1309 33.2908C37.0869 33.2908 36.1564 34.1618 35.8419 35.5175C35.7922 35.7341 35.5949 35.8917 35.359 35.8917H31.7203C31.4363 35.8917 31.2085 35.666 31.2294 35.3978C31.4829 32.0305 33.668 29.7266 39.3571 29.7266C45.0462 29.7266 47.2811 32.2199 47.2811 36.6384V47.2539C47.2811 47.5099 47.0613 47.719 46.7886 47.719H43.0857C42.8595 47.719 42.6605 47.5735 42.6076 47.366L42.6092 47.3675ZM42.3589 39.9997C42.3653 39.6634 42.0011 39.4286 41.6754 39.5635C41.1412 39.7861 40.3679 39.9618 39.2063 40.1678C36.4131 40.6662 35.5082 41.4145 35.5082 42.9111C35.5082 44.2289 36.3377 44.8712 37.8859 44.8712C40.4144 44.8712 42.3012 43.1247 42.3381 41.0585L42.3589 39.9997Z" fill="#4340D8"/>
<path d="M62.335 36.1762H65.9288C66.1967 36.1762 66.4149 36.3822 66.4149 36.6351V41.1643C66.4149 44.8694 64.1511 48.1837 58.9048 48.1837C53.6585 48.1837 51.3193 44.9058 51.3193 41.1294V25.9121C51.3193 25.6591 51.5375 25.4531 51.8055 25.4531H55.664C55.9319 25.4531 56.1501 25.6591 56.1501 25.9121V29.7323C56.1501 29.9853 56.3683 30.1913 56.6362 30.1913H65.9288C66.1967 30.1913 66.4149 30.3973 66.4149 30.6503V33.0103C66.4149 33.2633 66.1967 33.4693 65.9288 33.4693H56.6362C56.3683 33.4693 56.1501 33.6753 56.1501 33.9282V40.6659C56.1501 42.8745 56.9796 44.1575 58.9802 44.1575C60.9809 44.1575 61.8489 42.9108 61.8489 40.7371V36.6351C61.8489 36.3822 62.067 36.1762 62.335 36.1762Z" fill="#4340D8"/>
<path d="M70.3004 47.4887V30.4203C70.3004 30.2931 70.4095 30.1901 70.5443 30.1901H74.6595C74.7943 30.1901 74.9034 30.2931 74.9034 30.4203V31.5746C74.9034 31.7927 75.1954 31.8896 75.3382 31.7185C76.8591 29.9038 78.5886 29.7266 80.4128 29.7266H80.8091C80.9439 29.7266 81.053 29.8296 81.053 29.9568V34.1966C81.053 34.3345 80.9246 34.4435 80.7802 34.4254C80.4176 34.3799 80.0566 34.3572 79.694 34.3572C76.6746 34.3572 75.2034 35.7826 75.2034 38.597V47.4872C75.2034 47.6144 75.0943 47.7174 74.9595 47.7174H70.5427C70.4079 47.7174 70.2988 47.6144 70.2988 47.4872L70.3004 47.4887Z" fill="#4340D8"/>
<path d="M83.4868 47.3656V30.0897C83.4868 29.8958 83.6537 29.7383 83.859 29.7383H88.1459C88.3513 29.7383 88.5181 29.8958 88.5181 30.0897V47.3656C88.5181 47.5595 88.3513 47.717 88.1459 47.717H83.859C83.6537 47.717 83.4868 47.5595 83.4868 47.3656Z" fill="#4340D8"/>
<path d="M92.2261 55.6841V30.5435C92.2261 30.3572 92.3865 30.2057 92.5838 30.2057H96.5884C96.7841 30.2057 96.9429 30.3542 96.9461 30.539L96.9606 31.3388C96.9654 31.6523 97.3761 31.7871 97.5927 31.5493C98.7254 30.3163 100.25 29.7422 102.144 29.7422C106.821 29.7422 110.177 33.2322 110.177 39.1428C110.177 44.4491 107.349 48.1875 102.558 48.1875C100.585 48.1875 98.9741 47.5331 97.6745 46.1789C97.4547 45.9502 97.052 46.0971 97.052 46.4061V55.6826C97.052 55.8689 96.8916 56.0203 96.6943 56.0203H92.5838C92.3865 56.0203 92.2261 55.8689 92.2261 55.6826V55.6841ZM105.201 38.8232C105.201 35.6892 103.466 33.517 101.015 33.517C98.5634 33.517 96.8659 35.5816 96.8659 38.5384C96.8659 42.3481 98.2617 44.2355 100.976 44.2355C103.843 44.2355 105.201 42.4193 105.201 38.8232Z" fill="#4340D8"/>
<path d="M123.744 35.4993C123.519 35.4993 123.32 35.3554 123.271 35.1494C122.927 33.7059 121.934 33.1833 119.866 33.1833C118.016 33.1833 116.961 33.6104 116.961 34.6435C116.961 35.6766 117.979 36.1037 119.98 36.6384C122.093 37.208 124.094 37.6003 125.528 38.135C127.49 38.8833 128.584 40.0951 128.584 42.3749C128.584 46.0088 125.754 48.1825 120.471 48.1825C115.188 48.1825 111.908 45.8861 111.559 42.5884C111.53 42.3203 111.759 42.0901 112.045 42.0901H116.133C116.372 42.0901 116.579 42.2537 116.612 42.4779C116.829 43.8805 118.249 44.6909 120.432 44.6909C122.168 44.6909 123.715 44.1926 123.715 42.8732C123.715 41.6266 122.319 41.2342 120.734 40.8783C117.602 40.1663 115.866 39.6665 114.544 38.8833C112.808 37.8503 112.205 36.4961 112.205 34.9283C112.205 31.9714 114.357 29.7266 120.017 29.7266C125.128 29.7266 127.562 31.5428 128.005 34.9873C128.04 35.26 127.811 35.4978 127.521 35.4978H123.744V35.4993Z" fill="#4340D8"/>
<path d="M25.6812 23H23.3292C22.6496 23 22.0986 23.5202 22.0986 24.1618V26.3825C22.0986 27.0241 22.6496 27.5443 23.3292 27.5443H25.6812C26.3608 27.5443 26.9118 27.0241 26.9118 26.3825V24.1618C26.9118 23.5202 26.3608 23 25.6812 23Z" fill="#4340D8"/>
</svg>
