<svg width="79" height="38" viewBox="0 0 79 38" fill="none" xmlns="http://www.w3.org/2000/svg">
<g filter="url(#filter0_d_1789_11902)">
<path d="M14.3274 30.335C17.7301 30.2975 21.1403 30.2717 24.5256 30.0018C28.0253 29.7225 31.5199 29.2626 34.9773 28.683C37.8108 28.2089 40.5897 27.4462 43.3884 26.8009C44.8151 26.4723 46.2492 26.1602 47.6561 25.7636C49.1126 25.3553 50.5443 24.8695 51.9759 24.3885C54.3347 23.5929 56.7009 22.8185 59.0299 21.9526C60.9984 21.2204 62.9421 20.4202 64.8535 19.5613C67.687 18.287 70.4833 16.9376 73.2919 15.6094C73.2994 15.6047 73.3069 15.6 73.3143 15.5977L74.0973 24.5011C73.9978 24.5386 73.8984 24.5785 73.799 24.6184C71.8354 25.3835 69.8345 26.0617 67.8237 26.7117C65.1692 27.5706 62.5097 28.4272 59.8178 29.1687C57.5609 29.7906 55.2668 30.3139 52.9602 30.7621C49.038 31.5248 45.1208 32.3978 41.1539 32.8601C33.8116 33.7143 26.4395 34.3878 19.0226 33.7401C15.1278 33.3999 11.2131 33.1441 7.35301 32.5715C6.37371 32.426 4.97185 32.0693 4 31.8909L4.22619 29.7836C5.38694 29.915 6.55017 30.0276 7.7134 30.1238C9.90813 30.3045 12.1203 30.3632 14.3249 30.3397L14.3274 30.335Z" fill="#FFCA00"/>
<path d="M16.8103 29.016C18.6819 28.3448 20.5635 27.6831 22.3133 26.796C24.1228 25.8761 25.8428 24.7896 27.4832 23.5927C28.8279 22.6118 30.006 21.3704 31.2513 20.2346C31.8851 19.6549 32.5314 19.0917 33.1229 18.4534C33.7344 17.7917 34.2986 17.0642 34.8603 16.339C35.7874 15.1446 36.7294 13.9642 37.6068 12.7063C38.3475 11.6433 39.0435 10.5192 39.6922 9.34582C40.6541 7.6069 41.5613 5.80228 42.481 4.01643C42.481 4.01173 42.4859 4.00469 42.4859 4L47.1911 12.3097C47.1538 12.366 47.119 12.42 47.0817 12.4763C46.3584 13.5699 45.573 14.586 44.7702 15.581C43.7088 16.8929 42.6425 18.2023 41.5042 19.4109C40.5497 20.4247 39.5257 21.3493 38.4619 22.2058C36.6499 23.6631 34.8926 25.2237 32.9141 26.4018C29.2479 28.5842 25.4774 30.6 21.0506 31.3698C18.7242 31.7734 16.43 32.2639 14.0116 32.4375C13.3977 32.4821 12.7788 32.5056 12.1524 32.5173L10.9395 30.3724C11.6478 30.2809 12.3463 30.1706 13.0373 30.0439C14.3422 29.8045 15.5998 29.4478 16.8103 29.0137V29.016Z" fill="#FFCA00"/>
<path d="M27.0018 29.4047C28.4733 29.0949 29.9522 28.7945 31.3565 28.3087C32.8106 27.8089 34.2174 27.1706 35.577 26.4454C36.6905 25.8517 37.712 25.0445 38.7684 24.3264C39.3077 23.9603 39.8546 23.6036 40.3666 23.1882C40.8985 22.7588 41.4006 22.273 41.9051 21.7896C42.7328 20.994 43.5705 20.2102 44.3683 19.3607C45.0419 18.6426 45.6881 17.8776 46.307 17.068C47.2242 15.8688 48.1041 14.618 48.9939 13.3789C48.9939 13.3766 48.9989 13.3719 49.0014 13.3672L51.559 20.0413C51.5242 20.0788 51.4919 20.1163 51.4596 20.1539C50.7959 20.8955 50.0925 21.5737 49.3817 22.2331C48.4396 23.1037 47.4976 23.972 46.5109 24.7558C45.6832 25.4129 44.8157 25.9996 43.9234 26.5299C42.4072 27.4311 40.9184 28.4167 39.3078 29.0949C36.3251 30.3504 33.2828 31.4674 29.895 31.5918C28.1154 31.6575 26.3481 31.7866 24.5262 31.6716C24.0639 31.6411 23.5991 31.5965 23.1319 31.5425L22.4707 29.82C23.0076 29.8224 23.542 29.813 24.0739 29.7895C25.0731 29.7449 26.0524 29.6065 27.0043 29.4047H27.0018Z" fill="#FFCA00"/>
</g>
<defs>
<filter id="filter0_d_1789_11902" x="0" y="0" width="78.0977" height="38" filterUnits="userSpaceOnUse" color-interpolation-filters="sRGB">
<feFlood flood-opacity="0" result="BackgroundImageFix"/>
<feColorMatrix in="SourceAlpha" type="matrix" values="0 0 0 0 0 0 0 0 0 0 0 0 0 0 0 0 0 0 127 0" result="hardAlpha"/>
<feOffset/>
<feGaussianBlur stdDeviation="2"/>
<feComposite in2="hardAlpha" operator="out"/>
<feColorMatrix type="matrix" values="0 0 0 0 0 0 0 0 0 0 0 0 0 0 0 0 0 0 0.4 0"/>
<feBlend mode="normal" in2="BackgroundImageFix" result="effect1_dropShadow_1789_11902"/>
<feBlend mode="normal" in="SourceGraphic" in2="effect1_dropShadow_1789_11902" result="shape"/>
</filter>
</defs>
</svg>
