<svg width="320" height="101" viewBox="0 0 320 101" fill="none" xmlns="http://www.w3.org/2000/svg">
<g filter="url(#filter0_d_1789_11907)">
<path d="M25.08 39H4.92V12.44H24.44V17.08H10.32V22.76H23.32V27.44H10.32V34.28H25.08V39ZM44.8691 39H38.5091L35.0691 33.08L31.7091 39H25.4691L32.0691 28.96L25.6691 19.32H31.9491L35.2691 25.04L38.6291 19.32H44.6691L38.1491 28.96L44.8691 39ZM55.5728 35.08C58.6128 35.08 60.0528 33.04 60.0528 29C60.0528 25.48 58.2128 23.04 55.6128 23.04C53.1328 23.04 51.2128 25.36 51.2128 28.68C51.2128 32.96 52.6928 35.08 55.5728 35.08ZM51.4128 48.32H46.2928V19.32H51.2928L51.3328 21.72C52.5728 19.72 54.4128 18.8 56.8128 18.8C61.7728 18.8 65.3328 22.72 65.3328 29.36C65.3328 35.32 62.3328 39.52 57.2528 39.52C54.8128 39.52 52.8928 38.52 51.4128 36.44V48.32ZM72.4903 39H67.2903V12.12H72.4903V39ZM84.4131 35.16C87.5731 35.16 89.1731 33.16 89.1731 29.16C89.1731 25.16 87.5731 23.2 84.4131 23.2C81.2531 23.2 79.6531 25.16 79.6531 29.16C79.6531 33.16 81.2531 35.16 84.4131 35.16ZM84.4131 39.52C78.0531 39.52 74.2931 35.28 74.2931 29.16C74.2931 22.92 78.1731 18.8 84.4131 18.8C90.5731 18.8 94.4131 22.88 94.4131 29.16C94.4131 35.4 90.5331 39.52 84.4131 39.52ZM101.556 39H96.3556V19.32H101.236V21.68C102.956 19.04 104.956 18.8 107.076 18.8H107.756V24.12C107.276 24.04 106.796 24 106.316 24C103.116 24 101.556 25.6 101.556 28.76V39ZM112.976 27.24H121.016C120.936 24.32 119.016 22.92 116.976 22.92C114.896 22.92 113.176 24.52 112.976 27.24ZM126.376 30.52H112.816C112.976 33.48 114.656 35.4 117.216 35.4C118.896 35.4 120.376 34.56 120.736 33.2H126.096C124.896 37.24 121.656 39.52 117.456 39.52C110.896 39.52 107.616 35.92 107.616 28.8C107.616 22.72 111.096 18.8 117.136 18.8C123.176 18.8 126.376 22.72 126.376 30.52ZM151.262 39H146.022L137.022 12.44H142.942L148.742 31.08L154.502 12.44H160.262L151.262 39ZM167.033 39H161.833V19.32H167.033V39ZM167.033 16.96H161.833V12.12H167.033V16.96ZM174.388 27.24H182.428C182.348 24.32 180.428 22.92 178.388 22.92C176.308 22.92 174.588 24.52 174.388 27.24ZM187.788 30.52H174.228C174.388 33.48 176.068 35.4 178.628 35.4C180.308 35.4 181.788 34.56 182.148 33.2H187.508C186.308 37.24 183.068 39.52 178.868 39.52C172.308 39.52 169.028 35.92 169.028 28.8C169.028 22.72 172.508 18.8 178.548 18.8C184.588 18.8 187.788 22.72 187.788 30.52ZM200.805 31.16V26.04H205.645V31.64C205.645 35.8 203.245 39.52 197.685 39.52C191.925 39.52 189.645 35.84 189.645 31.6V14H194.765V19.32H205.645V23H194.765V31.08C194.765 33.56 195.645 35 197.765 35C199.845 35 200.805 33.6 200.805 31.16ZM239.059 39H233.939L222.579 21.16V39H217.419V12.44H223.299L233.859 29.52V12.44H239.059V39ZM253.152 31.52L253.192 29.36C252.672 29.88 251.752 30.16 249.832 30.52C246.872 31.08 245.912 31.92 245.912 33.6C245.912 35.08 246.792 35.8 248.432 35.8C251.112 35.8 253.112 33.84 253.152 31.52ZM258.392 39H253.552C253.392 38.52 253.272 37.84 253.232 37.24C251.992 38.6 249.912 39.52 247.272 39.52C242.792 39.52 240.712 37.32 240.712 34.12C240.712 28.44 244.512 27.8 249.752 27.08C252.352 26.72 253.072 26.2 253.072 24.84C253.072 23.56 251.792 22.8 249.752 22.8C247.392 22.8 246.432 23.96 246.192 25.72H241.352C241.432 21.64 243.672 18.8 249.992 18.8C256.232 18.8 258.392 21.6 258.392 26.56V39ZM288.905 39H283.825V27.08C283.825 24.72 282.585 23.04 280.745 23.04C278.825 23.04 277.425 24.84 277.425 27.24V39H272.225V27.16C272.225 24 271.385 23.2 269.105 23.2C267.025 23.2 265.945 24.48 265.945 27.04V39H260.745V19.32H265.625V22.2C266.945 19.6 268.785 18.8 271.385 18.8C274.065 18.8 275.345 19.64 276.865 21.92C277.945 19.76 279.705 18.8 282.185 18.8C286.145 18.8 288.905 21.68 288.905 25.36V39ZM26.6 87H21.28L18.16 75.56L15.04 87H9.72L4.12 67.32H9.6L12.8 79.96L15.52 67.32H20.8L23.88 79.96L26.88 67.32H32.24L26.6 87ZM38.9747 87H33.7747V67.32H38.9747V87ZM38.9747 64.96H33.7747V60.12H38.9747V64.96ZM52.57 79.16V74.04H57.41V79.64C57.41 83.8 55.01 87.52 49.45 87.52C43.69 87.52 41.41 83.84 41.41 79.6V62H46.53V67.32H57.41V71H46.53V79.08C46.53 81.56 47.41 83 49.53 83C51.61 83 52.57 81.6 52.57 79.16ZM77.435 87H72.195V74.8C72.195 71.84 71.195 70.92 68.835 70.92C66.235 70.92 64.795 73.08 64.795 75.72V87H59.595V60.12H64.795V69.88C65.555 68.12 67.955 66.8 70.595 66.8C74.635 66.8 77.435 69.16 77.435 73.08V87ZM102.801 87H97.5606L88.5606 60.44H94.4806L100.281 79.08L106.041 60.44H111.801L102.801 87ZM118.572 87H113.372V67.32H118.572V87ZM118.572 64.96H113.372V60.12H118.572V64.96ZM132.927 79.52L132.967 77.36C132.447 77.88 131.527 78.16 129.607 78.52C126.647 79.08 125.687 79.92 125.687 81.6C125.687 83.08 126.567 83.8 128.207 83.8C130.887 83.8 132.887 81.84 132.927 79.52ZM138.167 87H133.327C133.167 86.52 133.047 85.84 133.007 85.24C131.767 86.6 129.687 87.52 127.047 87.52C122.567 87.52 120.487 85.32 120.487 82.12C120.487 76.44 124.287 75.8 129.527 75.08C132.127 74.72 132.847 74.2 132.847 72.84C132.847 71.56 131.567 70.8 129.527 70.8C127.167 70.8 126.207 71.96 125.967 73.72H121.127C121.207 69.64 123.447 66.8 129.767 66.8C136.007 66.8 138.167 69.6 138.167 74.56V87ZM151.68 79.16V74.04H156.52V79.64C156.52 83.8 154.12 87.52 148.56 87.52C142.8 87.52 140.52 83.84 140.52 79.6V62H145.64V67.32H156.52V71H145.64V79.08C145.64 81.56 146.52 83 148.64 83C150.72 83 151.68 81.6 151.68 79.16ZM163.905 87H158.705V67.32H163.585V69.68C165.305 67.04 167.305 66.8 169.425 66.8H170.105V72.12C169.625 72.04 169.145 72 168.665 72C165.465 72 163.905 73.6 163.905 76.76V87ZM176.937 87H171.737V67.32H176.937V87ZM176.937 64.96H171.737V60.12H176.937V64.96ZM188.652 83.08C191.692 83.08 193.132 81.04 193.132 77C193.132 73.48 191.292 71.04 188.692 71.04C186.212 71.04 184.292 73.36 184.292 76.68C184.292 80.96 185.772 83.08 188.652 83.08ZM184.492 96.32H179.372V67.32H184.372L184.412 69.72C185.652 67.72 187.492 66.8 189.892 66.8C194.852 66.8 198.412 70.72 198.412 77.36C198.412 83.32 195.412 87.52 190.332 87.52C187.892 87.52 185.972 86.52 184.492 84.44V96.32ZM217.209 73.28H212.209C211.929 71.36 210.889 70.68 208.529 70.68C206.569 70.68 205.449 71.16 205.449 72.32C205.449 73.48 206.529 73.96 208.649 74.56C210.889 75.2 213.009 75.64 214.529 76.24C216.609 77.08 217.769 78.44 217.769 81C217.769 85.08 214.769 87.52 209.169 87.52C203.129 87.52 199.769 84.68 199.689 80.68H205.049C205.049 82.52 206.609 83.6 209.129 83.6C210.969 83.6 212.609 83.04 212.609 81.56C212.609 80.16 211.129 79.72 209.449 79.32C206.129 78.52 204.289 77.96 202.889 77.08C201.049 75.92 200.409 74.4 200.409 72.64C200.409 69.32 202.689 66.8 208.689 66.8C214.369 66.8 216.929 69.04 217.209 73.28Z" fill="white"/>
</g>
<g filter="url(#filter1_d_1789_11907)">
<path d="M240.965 82.3333C245.237 82.2862 249.518 82.2538 253.768 81.915C258.161 81.5644 262.548 80.987 266.889 80.2593C270.446 79.6642 273.935 78.7067 277.448 77.8965C279.239 77.4841 281.04 77.0923 282.806 76.5944C284.634 76.0818 286.432 75.4719 288.229 74.868C291.19 73.8693 294.161 72.8971 297.084 71.81C299.556 70.8908 301.996 69.8862 304.395 68.8079C307.953 67.2082 311.463 65.5142 314.989 63.8468C314.998 63.8409 315.008 63.835 315.017 63.832L316 75.0094C315.875 75.0565 315.75 75.1066 315.626 75.1567C313.16 76.1171 310.649 76.9685 308.124 77.7846C304.792 78.8629 301.453 79.9382 298.074 80.8691C295.24 81.6498 292.36 82.3068 289.465 82.8695C284.541 83.827 279.623 84.9229 274.643 85.5033C265.425 86.5757 256.17 87.4212 246.859 86.6081C241.97 86.1809 237.055 85.8598 232.209 85.1409C230.98 84.9583 229.22 84.5105 228 84.2866L228.284 81.641C229.741 81.806 231.201 81.9474 232.662 82.0682C235.417 82.295 238.194 82.3687 240.962 82.3392L240.965 82.3333Z" fill="#FFCA00"/>
<path d="M244.082 80.6785C246.432 79.8359 248.794 79.0051 250.991 77.8915C253.262 76.7367 255.422 75.3726 257.481 73.8701C259.169 72.6387 260.648 71.0802 262.211 69.6543C263.007 68.9266 263.818 68.2196 264.561 67.4183C265.329 66.5875 266.037 65.6742 266.742 64.7639C267.906 63.2643 269.089 61.7824 270.19 60.2033C271.12 58.8688 271.994 57.4576 272.808 55.9846C274.016 53.8015 275.155 51.536 276.309 49.2941C276.309 49.2882 276.315 49.2793 276.315 49.2734L282.222 59.7055C282.175 59.7762 282.132 59.8439 282.085 59.9146C281.177 61.2875 280.191 62.5631 279.183 63.8123C277.851 65.4591 276.512 67.103 275.083 68.6203C273.885 69.893 272.599 71.0537 271.263 72.129C268.989 73.9585 266.783 75.9177 264.299 77.3966C259.696 80.1364 254.963 82.6671 249.405 83.6334C246.485 84.1401 243.605 84.7559 240.569 84.9739C239.798 85.0298 239.021 85.0593 238.235 85.074L236.712 82.3813C237.601 82.2664 238.478 82.128 239.345 81.9689C240.984 81.6684 242.563 81.2206 244.082 80.6756V80.6785Z" fill="#FFCA00"/>
<path d="M256.877 81.1647C258.724 80.7758 260.581 80.3987 262.344 79.7889C264.169 79.1613 265.935 78.36 267.642 77.4497C269.04 76.7043 270.322 75.6909 271.649 74.7894C272.326 74.3298 273.012 73.882 273.655 73.3605C274.323 72.8214 274.953 72.2116 275.586 71.6047C276.626 70.606 277.677 69.622 278.679 68.5555C279.524 67.654 280.336 66.6936 281.113 65.6772C282.264 64.1718 283.369 62.6015 284.486 61.046C284.486 61.043 284.492 61.0371 284.495 61.0312L287.706 69.4099C287.662 69.457 287.622 69.5041 287.581 69.5513C286.748 70.4822 285.865 71.3336 284.972 72.1615C283.79 73.2545 282.607 74.3445 281.368 75.3285C280.329 76.1534 279.24 76.8899 278.12 77.5557C276.217 78.687 274.348 79.9244 272.326 80.7758C268.581 82.3519 264.762 83.7543 260.509 83.9104C258.275 83.9929 256.056 84.1549 253.769 84.0106C253.189 83.9723 252.605 83.9163 252.018 83.8485L251.188 81.6861C251.862 81.6891 252.533 81.6773 253.201 81.6478C254.455 81.5918 255.685 81.418 256.88 81.1647H256.877Z" fill="#FFCA00"/>
</g>
<defs>
<filter id="filter0_d_1789_11907" x="0.120117" y="8.12109" width="292.784" height="92.1992" filterUnits="userSpaceOnUse" color-interpolation-filters="sRGB">
<feFlood flood-opacity="0" result="BackgroundImageFix"/>
<feColorMatrix in="SourceAlpha" type="matrix" values="0 0 0 0 0 0 0 0 0 0 0 0 0 0 0 0 0 0 127 0" result="hardAlpha"/>
<feOffset/>
<feGaussianBlur stdDeviation="2"/>
<feComposite in2="hardAlpha" operator="out"/>
<feColorMatrix type="matrix" values="0 0 0 0 0 0 0 0 0 0 0 0 0 0 0 0 0 0 0.25 0"/>
<feBlend mode="normal" in2="BackgroundImageFix" result="effect1_dropShadow_1789_11907"/>
<feBlend mode="normal" in="SourceGraphic" in2="effect1_dropShadow_1789_11907" result="shape"/>
</filter>
<filter id="filter1_d_1789_11907" x="224" y="45.2734" width="96" height="45.6602" filterUnits="userSpaceOnUse" color-interpolation-filters="sRGB">
<feFlood flood-opacity="0" result="BackgroundImageFix"/>
<feColorMatrix in="SourceAlpha" type="matrix" values="0 0 0 0 0 0 0 0 0 0 0 0 0 0 0 0 0 0 127 0" result="hardAlpha"/>
<feOffset/>
<feGaussianBlur stdDeviation="2"/>
<feComposite in2="hardAlpha" operator="out"/>
<feColorMatrix type="matrix" values="0 0 0 0 0 0 0 0 0 0 0 0 0 0 0 0 0 0 0.4 0"/>
<feBlend mode="normal" in2="BackgroundImageFix" result="effect1_dropShadow_1789_11907"/>
<feBlend mode="normal" in="SourceGraphic" in2="effect1_dropShadow_1789_11907" result="shape"/>
</filter>
</defs>
</svg>
