<svg width="36" height="24" viewBox="0 0 36 24" fill="none" xmlns="http://www.w3.org/2000/svg">
<g clip-path="url(#clip0_870_10633)">
<rect width="36" height="24" rx="2" fill="black"/>
<path fill-rule="evenodd" clip-rule="evenodd" d="M24.9591 11.9573H23.3742L24.1428 9.76739L24.9591 11.9573ZM-18.8627 9.49036L-20.4649 11.0925L-20.5447 11.1712L-21.4333 12.0609L-22.2432 12.871L-22.3221 12.9508H-22.323L-23.0739 13.7006V13.7017L-23.1527 13.7804C-23.3777 14.0056 -23.6265 14.1901 -23.8909 14.3363C-24.0248 14.41 -24.1616 14.4731 -24.3016 14.527C-24.6138 14.6473 -24.9414 14.7179 -25.2711 14.7387C-25.4733 14.7522 -25.6786 14.7469 -25.8798 14.7221C-26.3153 14.67 -26.7426 14.5312 -27.1325 14.3053C-27.2994 14.2089 -27.4705 14.1082 -27.6127 13.9672C-27.6137 13.9672 -27.6137 13.9672 -27.6147 13.9661L-30.6873 10.8938C-30.7381 10.8375 -30.7837 10.7768 -30.822 10.7113C-30.9196 10.5463 -30.9756 10.3551 -30.9756 10.1502C-30.9756 10.1179 -30.9744 10.0858 -30.9714 10.0546C-30.9673 10.0071 -30.96 9.96106 -30.9507 9.91662L-30.9321 9.84301C-30.8906 9.70609 -30.8232 9.57669 -30.7297 9.46024C-30.7049 9.43065 -30.679 9.40148 -30.651 9.37231L-30.5992 9.32119L-27.4914 6.21234H-27.4902L-25.6071 4.32956C-25.1871 3.90945 -24.5182 3.89057 -24.0776 4.27536L-18.8627 9.49036ZM17.0237 8.17234L18.5237 8.16672H20.3452C21.347 8.16672 22.1667 8.98646 22.1667 9.98821V10.2125C22.1667 11.2147 21.3464 11.9782 20.3452 12.0084L19.5142 12.034C20.1822 11.7269 20.4618 10.951 20.3784 10.2524C20.3115 9.69124 20.0227 9.15202 19.5413 9.14184L19.2378 9.13516V14.1279C19.2378 14.225 19.2546 14.2655 19.3057 14.3508C19.387 14.4867 19.4959 14.6225 19.6078 14.7582C19.6374 14.7934 19.6665 14.8286 19.6957 14.8638H17.1123C17.1511 14.8164 17.189 14.7683 17.2253 14.7189C17.3034 14.6118 17.373 14.4989 17.4251 14.3728C17.4588 14.2915 17.4751 14.2315 17.4751 14.1451V8.78198C17.4647 8.50251 17.1867 8.34352 17.0237 8.17234ZM29.4293 11.7488L27.0835 8.38553L26.8448 8.16683H29.1574L30.7243 10.7094L30.8505 10.6066L31.7975 9.19869C32.0306 8.85272 31.999 8.45096 31.6672 8.16683H33.8521L31.3263 11.7484L31.3253 14.347L31.7704 14.8762H29.0561L29.4383 14.3549C29.4386 13.4886 29.4074 12.6126 29.4293 11.7488ZM23.06 8.16672C23.247 8.42381 23.3027 8.51428 23.3236 8.74274C23.3379 8.90214 23.3272 8.99314 23.2761 9.14184L21.5313 14.2014C21.4495 14.4093 21.2809 14.6392 21.035 14.8623H22.9393C22.7977 14.7371 22.7077 14.5877 22.6745 14.41C22.6449 14.2476 22.6459 14.1867 22.6812 14.0305L23.0681 12.8287H25.2842L25.6296 13.7546C25.6659 13.8517 25.6863 13.9418 25.6956 14.0459C25.7257 14.3916 25.6149 14.6764 25.3404 14.8774H28.3256C28.0327 14.6166 27.7639 14.3435 27.6121 14.012L25.4329 8.16662L23.06 8.16672Z" fill="white"/>
<path d="M3.01658 8.1375H5.10226L6.85268 13.1563L8.33732 8.99913C8.36437 8.8376 8.34093 8.785 8.27909 8.64595C8.19679 8.47732 8.10887 8.31324 8.0271 8.1446H9.58481C9.49232 8.484 9.35582 8.85648 9.23831 9.19842L7.22676 15.0436C6.6779 14.9342 6.06561 14.7169 5.59237 14.2682C5.23611 13.9306 5.10937 13.5468 4.93362 13.089L3.25172 8.63471C3.18522 8.45897 3.10345 8.30157 3.01658 8.1375Z" fill="white"/>
<path fill-rule="evenodd" clip-rule="evenodd" d="M11.3434 10.4895V14.0756C11.3434 14.2059 11.3704 14.2405 11.4401 14.3299L11.4665 14.364L11.8774 14.8995H9.91444C10.0016 14.7669 10.0884 14.6343 10.1751 14.5018L10.2461 14.3934L10.2635 14.3651C10.3365 14.2468 10.3683 14.1954 10.3683 14.0454V9.03509L9.81634 8.1376H11.8509L15.1447 12.3799V8.99924C15.1447 8.83771 15.1125 8.7851 15.0272 8.64606C14.972 8.56174 14.9155 8.47856 14.859 8.39538C14.8026 8.31221 14.7461 8.22903 14.6909 8.14471H16.6518L16.243 8.68032L16.2165 8.71449C16.1468 8.80371 16.1198 8.83826 16.1198 8.96859V15.071C15.3773 14.9731 14.6853 14.7914 14.0699 14.0053L11.3434 10.4895Z" fill="white"/>
</g>
<defs>
<clipPath id="clip0_870_10633">
<rect width="36" height="24" rx="2" fill="white"/>
</clipPath>
</defs>
</svg>
