<?xml version="1.0" standalone="no"?>
<!DOCTYPE svg PUBLIC "-//W3C//DTD SVG 1.1//EN" "http://www.w3.org/Graphics/SVG/1.1/DTD/svg11.dtd" >
<svg xmlns="http://www.w3.org/2000/svg">
<metadata>Generated by IcoMoon</metadata>
<defs>
<font id="viatrips" horiz-adv-x="1024">
<font-face units-per-em="1024" ascent="960" descent="-64" />
<missing-glyph horiz-adv-x="1024" />
<glyph unicode="&#x20;" horiz-adv-x="512" d="" />
<glyph unicode="&#xe900;" glyph-name="web" d="M369.297 939.813c-98.982-28.791-186.979-86.766-252.497-166.351s-105.511-177.079-114.754-279.749h234.057c13.569 156.231 58.865 308.049 133.12 446.173l0.073-0.073zM236.104 402.287c13.569-156.228 58.865-308.049 133.12-446.174-98.979 28.809-186.968 86.801-252.473 166.4-65.505 79.595-105.48 177.101-114.704 279.774h234.057zM486.545-63.415c16.934-0.823 33.899-0.823 50.833 0 88.738 140.621 143.113 300.16 158.72 465.702h-368.273c15.609-165.542 69.983-325.082 158.72-465.702zM654.775-43.814v-0.073c74.253 138.125 119.548 289.946 133.12 446.174h234.057c-9.237-102.66-49.22-200.149-114.726-279.731-65.502-79.586-153.485-137.566-252.45-166.37zM787.895 493.713c-13.568 156.231-58.867 308.050-133.12 446.173 98.978-28.808 186.965-86.8 252.471-166.397s105.481-177.102 114.705-279.776h-234.057zM486.545 959.415c16.96 0.83 33.95 0.83 50.906 0 88.713-140.625 143.061-300.165 158.647-465.702h-368.2c15.872 166.548 70.363 326.219 158.647 465.702z" />
<glyph unicode="&#xe901;" d="M512-32c265.097 0 480 214.903 480 480s-214.903 480-480 480c-265.097 0-480-214.903-480-480s214.903-480 480-480z" />
<glyph unicode="&#xe902;" d="M512 336l158.4-112-59.2 182.4 156.8 118.4h-195.2l-60.8 179.2-59.2-179.2h-196.8l156.8-118.4-59.2-182.4 158.4 112z" />
<glyph unicode="&#xe903;" glyph-name="user" d="M384 362.667c-117.821 0-213.333-95.514-213.333-213.333 0-70.694 57.308-128 128-128h426.667c70.694 0 128 57.306 128 128 0 117.82-95.514 213.333-213.333 213.333h-256zM512 874.667c-117.821 0-213.333-95.513-213.333-213.333s95.513-213.333 213.333-213.333c117.82 0 213.333 95.513 213.333 213.333s-95.514 213.333-213.333 213.333z" />
<glyph unicode="&#xe904;" glyph-name="under-dots" d="M810.667 149.333c-21.333 0-42.667 8.533-59.733 25.6s-25.6 38.4-25.6 59.733 8.533 42.667 25.6 59.733c34.133 34.133 89.6 34.133 119.467 0 17.067-17.067 25.6-38.4 25.6-59.733s-8.533-42.667-25.6-59.733-38.4-25.6-59.733-25.6zM512 149.333c-21.333 0-42.667 8.533-59.733 25.6s-25.6 38.4-25.6 59.733 8.533 42.667 25.6 59.733c34.133 34.133 89.6 34.133 119.467 0 17.067-17.067 25.6-38.4 25.6-59.733s-8.533-42.667-25.6-59.733-38.4-25.6-59.733-25.6zM213.333 149.333c-21.333 0-42.667 8.533-59.733 25.6s-25.6 38.4-25.6 59.733 8.533 42.667 25.6 59.733c34.133 34.133 89.6 34.133 119.467 0 17.067-17.067 25.6-38.4 25.6-59.733s-8.533-42.667-25.6-59.733-38.4-25.6-59.733-25.6z" />
<glyph unicode="&#xe905;" d="M351.998-4.8v220.8l-164.8-121.6c46.4-43.2 102.4-76.8 164.8-99.2zM671.996-4.8c62.404 22.4 118.404 56 164.8 99.2l-164.8 123.2v-222.4zM59.198 288c4.8-16 11.2-30.4 19.2-46.4l62.4 46.4h-81.6zM883.196 288l62.4-46.4c6.4 14.4 12.8 30.4 19.2 46.4h-81.6z" />
<glyph unicode="&#xe906;" d="M375.999 352h-334.4c4.8-22.4 11.2-43.2 17.6-64h81.6l-62.4-46.4c12.8-27.2 27.2-51.2 44.8-75.2l164.8 121.6h64v-32l-187.2-137.6 22.4-22.4 164.8 120v-220.8c20.8-8 41.6-12.8 64-17.6v374.4h-40zM982.4 352h-374.4v-374.4c22.4 4.8 43.2 11.2 64 17.6v220.8l164.8-120c22.4 20.8 41.6 43.2 60.8 67.2l-171.2 124.8h108.8l97.6-72c4.8 8 9.6 17.6 12.8 25.6l-62.4 46.4h81.6c6.4 20.8 12.8 41.6 17.6 64z" />
<glyph unicode="&#xe907;" d="M123.198 166.4c12.8-17.6 25.6-33.6 40-49.6l188.8 137.6v32h-64l-164.8-120zM728 288l171.2-124.8c6.4 8 11.2 16 17.596 24 1.604 1.6 1.604 3.2 3.204 3.2 4.8 8 11.2 17.6 16 25.6l-100.8 72h-107.2z" />
<glyph unicode="&#xe908;" d="M671.996 900.8v-220.8l164.8 121.6c-46.396 43.2-102.396 76.8-164.8 99.2zM351.998 900.8c-62.4-22.4-118.4-56-164.8-99.2l164.8-123.2v222.4zM964.796 608c-4.8 16-11.2 30.4-19.2 46.4l-62.4-46.4h81.6zM140.798 608l-62.4 46.4c-6.4-16-12.8-30.4-19.2-46.4h81.6z" />
<glyph unicode="&#xe909;" d="M648 544h332.8c-4.8 22.4-11.2 43.2-17.6 64h-81.6l62.4 46.4c-12.8 27.2-27.2 51.2-44.8 75.2l-163.2-121.6h-64v32l187.2 137.6-22.4 22.4-164.8-120v220.8c-20.8 8-41.6 12.8-64 17.6v-374.4h40zM41.599 544h374.4v374.4c-22.4-4.8-43.2-11.2-64-17.6v-220.8l-164.8 120c-22.4-20.8-41.6-43.2-60.8-67.2l171.2-124.8h-108.8l-97.6 72c-4.8-8-9.6-17.6-12.8-25.6l62.4-46.4h-81.6c-6.4-20.8-12.8-41.6-17.6-64z" />
<glyph unicode="&#xe90a;" d="M900.8 729.6c-12.8 17.6-25.6 33.6-40 49.6l-188.8-137.6v-32h64l164.8 120zM295.999 608l-169.6 124.8c-6.4-8-11.2-16-17.6-24-1.6-1.6-1.6-3.2-3.2-3.2-4.8-8-11.2-17.6-16-25.6l97.6-72h108.8z" />
<glyph unicode="&#xe90b;" d="M982.4 544h-374.4v374.4c-30.4 6.4-62.4 9.6-96 9.6s-65.6-3.2-96-9.6v-374.4h-374.4c-6.4-30.4-9.6-62.4-9.6-96s3.2-65.6 9.6-96h374.4v-374.4c30.4-6.4 62.4-9.6 96-9.6s65.6 3.2 96 9.6v374.4h374.4c6.4 30.4 9.6 62.4 9.6 96s-3.2 65.6-9.6 96z" />
<glyph unicode="&#xe90c;" glyph-name="tour" d="M298.667 362.667v-298.667c0-12.087-4.096-22.229-12.288-30.421s-18.318-12.275-30.379-12.245c-12.089 0-22.229 4.096-30.421 12.288s-12.273 18.317-12.245 30.379v768c0 12.089 4.096 22.229 12.288 30.421s18.319 12.273 30.379 12.245c12.089 0 22.229-4.096 30.421-12.288s12.274-18.319 12.245-30.379v-42.667h534.4c14.933 0 26.667-6.229 35.2-18.688s9.954-25.785 4.267-39.979l-61.867-154.667 61.867-154.667c5.687-14.221 4.267-27.563-4.267-40.021s-20.267-18.675-35.2-18.645h-534.4zM533.333 490.667c23.467 0 43.563 8.363 60.288 25.088s25.075 36.807 25.045 60.245c0 23.467-8.363 43.563-25.088 60.288s-36.809 25.073-60.245 25.045c-23.467 0-43.563-8.363-60.288-25.088s-25.075-36.807-25.045-60.245c0-23.467 8.363-43.563 25.088-60.288s36.809-25.075 60.245-25.045z" />
<glyph unicode="&#xe90d;" glyph-name="timeline" d="M146.601 738.814c16.363 32.113 42.471 58.222 74.584 74.584 36.508 18.601 84.299 18.601 179.881 18.601h221.867c95.582 0 143.373 0 179.883-18.601 32.111-16.363 58.219-42.471 74.581-74.584 18.603-36.508 18.603-84.299 18.603-179.881v-221.867c0-95.582 0-143.373-18.603-179.883-16.363-32.111-42.47-58.219-74.581-74.581-36.51-18.603-84.301-18.603-179.883-18.603h-221.867c-95.582 0-143.373 0-179.881 18.603-32.113 16.363-58.222 42.47-74.584 74.581-18.601 36.51-18.601 84.301-18.601 179.883v221.867c0 95.582 0 143.373 18.601 179.881zM512 320c-23.565 0-42.667-19.102-42.667-42.667s19.102-42.667 42.667-42.667h170.667c23.565 0 42.667 19.102 42.667 42.667s-19.102 42.667-42.667 42.667h-170.667zM384 448c0-23.565 19.103-42.667 42.667-42.667h170.667c23.565 0 42.667 19.102 42.667 42.667s-19.102 42.667-42.667 42.667h-170.667c-23.564 0-42.667-19.102-42.667-42.667zM341.333 661.333c-23.564 0-42.667-19.103-42.667-42.667s19.103-42.667 42.667-42.667h170.667c23.565 0 42.667 19.103 42.667 42.667s-19.102 42.667-42.667 42.667h-170.667z" />
<glyph unicode="&#xe90e;" glyph-name="ticket" d="M554.667 789.333c10.449-0.001 20.535-3.838 28.348-10.783 7.808-6.944 12.796-16.513 14.020-26.892l0.299-4.992c0.013-10.875 4.177-21.335 11.639-29.242 7.467-7.907 17.673-12.666 28.527-13.303s21.547 2.895 29.884 9.874c8.341 6.98 13.7 16.881 14.985 27.68l0.299 4.992c0 11.316 4.497 22.168 12.497 30.17s18.854 12.497 30.17 12.497h85.333c33.946 0 66.505-13.486 90.509-37.49s37.491-56.562 37.491-90.51v-426.667c0-33.946-13.487-66.505-37.491-90.509s-56.563-37.491-90.509-37.491h-85.333c-10.449 0-20.535 3.84-28.348 10.782-7.808 6.946-12.796 16.512-14.020 26.893l-0.299 4.992c-0.013 10.876-4.177 21.333-11.639 29.244-7.467 7.906-17.673 12.663-28.527 13.303-10.854 0.636-21.547-2.897-29.884-9.877-8.341-6.98-13.7-16.879-14.985-27.678l-0.299-4.992c0-11.315-4.497-22.17-12.497-30.17s-18.854-12.497-30.17-12.497h-341.333c-33.948 0-66.505 13.487-90.51 37.491s-37.49 56.563-37.49 90.509v426.667c0 33.948 13.486 66.505 37.49 90.51s56.562 37.49 90.51 37.49h341.333zM640 405.333c-11.315 0-22.17-4.497-30.17-12.497s-12.497-18.854-12.497-30.17v-42.667c0-11.315 4.497-22.17 12.497-30.17s18.854-12.497 30.17-12.497c11.315 0 22.17 4.497 30.17 12.497s12.497 18.854 12.497 30.17v42.667c0 11.315-4.497 22.17-12.497 30.17s-18.854 12.497-30.17 12.497zM640 618.667c-10.449-0.001-20.535-3.838-28.348-10.783-7.808-6.944-12.796-16.513-14.020-26.892l-0.299-4.992v-42.667c0.013-10.876 4.177-21.333 11.639-29.244 7.467-7.906 17.673-12.663 28.527-13.303 10.854-0.636 21.547 2.897 29.884 9.877 8.341 6.98 13.7 16.879 14.985 27.678l0.299 4.992v42.667c0 11.316-4.497 22.168-12.497 30.17s-18.854 12.497-30.17 12.497z" />
<glyph unicode="&#xe90f;" glyph-name="star" d="M937.997 502.481l-180.399-157.44 54.042-234.402c2.859-12.254 2.044-25.075-2.347-36.868s-12.16-22.033-22.336-29.431c-10.176-7.403-22.306-11.639-34.88-12.186-12.57-0.542-25.020 2.633-35.797 9.126l-204.442 124.002-204-124.002c-10.777-6.494-23.23-9.668-35.801-9.126-12.571 0.546-24.703 4.783-34.879 12.186-10.176 7.398-17.944 17.638-22.334 29.431s-5.206 24.614-2.346 36.868l53.96 234.163-180.44 157.679c-9.544 8.23-16.445 19.098-19.837 31.233-3.393 12.137-3.127 25.007 0.765 36.993s11.236 22.558 21.111 30.388c9.876 7.829 21.843 12.569 34.402 13.624l237.84 20.6 92.838 221.44c4.851 11.619 13.026 21.545 23.505 28.526s22.788 10.706 35.375 10.706c12.591 0 24.9-3.725 35.379-10.706s18.654-16.906 23.501-28.526l93.12-221.44 237.76-20.6c12.561-1.055 24.529-5.795 34.402-13.624 9.877-7.83 17.22-18.401 21.111-30.388s4.16-24.856 0.768-36.993c-3.396-12.136-10.295-23.003-19.84-31.233h-0.201z" />
<glyph unicode="&#xe910;" glyph-name="shopping-tag" d="M547.354 832c-33.946 0-66.505-13.486-90.509-37.49l-185.756-185.755c-8.331-8.332-8.331-21.839 0-30.17l371.505-371.502c8.329-8.333 21.837-8.333 30.17 0l185.754 185.754c24.004 24.004 37.491 56.563 37.491 90.509v263.322c0 47.128-38.204 85.333-85.333 85.333h-263.322zM725.333 618.667c0-23.564-19.102-42.667-42.667-42.667s-42.667 19.103-42.667 42.667c0 23.564 19.102 42.667 42.667 42.667s42.667-19.103 42.667-42.667zM582.251 116.57c8.333 8.333 8.333 21.841 0 30.17l-371.502 371.507c-8.331 8.329-21.839 8.329-30.17 0l-27.398-27.401c-33.325-33.323-33.325-87.356 0-120.678l280.995-280.994c33.323-33.327 87.356-33.323 120.678 0l27.396 27.396z" />
<glyph unicode="&#xe911;" glyph-name="shopping-list" d="M345.905 797.977c14.9-54.178 64.517-93.977 123.429-93.977h85.333c58.91 0 108.527 39.799 123.43 93.977 4.092 14.875 6.135 22.313 8.853 25.729 2.816 3.54 4.932 5.084 9.169 6.68 4.083 1.54 9.69 1.298 20.898 0.816 29.577-1.274 49.6-4.579 66.428-13.152 24.085-12.272 43.665-31.853 55.936-55.938 13.952-27.38 13.952-63.224 13.952-134.911v-401.067c0-71.689 0-107.529-13.952-134.912-12.271-24.085-31.851-43.665-55.936-55.936-27.383-13.952-63.223-13.952-134.912-13.952h-273.067c-71.687 0-107.53 0-134.911 13.952-24.085 12.271-43.666 31.851-55.938 55.936-13.951 27.383-13.951 63.223-13.951 134.912v401.067c0 71.687 0 107.53 13.951 134.911 12.272 24.085 31.853 43.666 55.938 55.938 16.827 8.574 36.851 11.878 66.426 13.152 11.211 0.483 16.817 0.724 20.901-0.816 4.233-1.596 6.351-3.14 9.167-6.68 2.717-3.416 4.763-10.854 8.855-25.729zM554.667 576c-23.565 0-42.667-19.103-42.667-42.667s19.102-42.667 42.667-42.667h85.333c23.565 0 42.667 19.102 42.667 42.667s-19.102 42.667-42.667 42.667h-85.333zM512 362.667c0-23.565 19.102-42.667 42.667-42.667h85.333c23.565 0 42.667 19.102 42.667 42.667s-19.102 42.667-42.667 42.667h-85.333c-23.565 0-42.667-19.102-42.667-42.667zM554.667 234.667c-23.565 0-42.667-19.102-42.667-42.667s19.102-42.667 42.667-42.667h85.333c23.565 0 42.667 19.102 42.667 42.667s-19.102 42.667-42.667 42.667h-85.333zM426.667 533.333c0 23.564-19.103 42.667-42.667 42.667s-42.667-19.103-42.667-42.667c0-23.565 19.103-42.667 42.667-42.667s42.667 19.102 42.667 42.667zM384 320c23.564 0 42.667 19.102 42.667 42.667s-19.103 42.667-42.667 42.667c-23.564 0-42.667-19.102-42.667-42.667s19.103-42.667 42.667-42.667zM426.667 192c0 23.565-19.103 42.667-42.667 42.667s-42.667-19.102-42.667-42.667c0-23.565 19.103-42.667 42.667-42.667s42.667 19.102 42.667 42.667zM554.667 874.667h-85.333c-23.565 0-42.667-19.103-42.667-42.667s19.102-42.667 42.667-42.667h85.333c23.565 0 42.667 19.103 42.667 42.667s-19.102 42.667-42.667 42.667z" />
<glyph unicode="&#xe912;" glyph-name="settings" d="M768 832c0 23.564-19.102 42.667-42.667 42.667s-42.667-19.103-42.667-42.667v-298.667c0-23.565 19.102-42.667 42.667-42.667s42.667 19.102 42.667 42.667v298.667zM768 192c0 23.565-19.102 42.667-42.667 42.667s-42.667-19.102-42.667-42.667v-128c0-23.565 19.102-42.667 42.667-42.667s42.667 19.102 42.667 42.667v128zM298.667 874.667c23.564 0 42.667-19.103 42.667-42.667v-128c0-23.564-19.102-42.667-42.667-42.667s-42.667 19.103-42.667 42.667v128c0 23.564 19.103 42.667 42.667 42.667zM341.333 362.667c0 23.565-19.103 42.667-42.667 42.667s-42.667-19.102-42.667-42.667v-298.667c0-23.565 19.103-42.667 42.667-42.667s42.667 19.102 42.667 42.667v298.667zM597.333 277.333c0-70.694 57.306-128 128-128s128 57.306 128 128c0 70.694-57.306 128-128 128s-128-57.306-128-128zM170.667 618.667c0-70.692 57.308-128 128-128s128 57.308 128 128c0 70.692-57.308 128-128 128s-128-57.308-128-128z" />
<glyph unicode="&#xe913;" glyph-name="send" d="M863.36 717.397c18.432 50.987-30.976 100.395-81.963 81.92l-623.145-225.365c-51.157-18.517-57.344-88.32-10.283-115.584l198.912-115.157 177.62 177.621c8.047 7.774 18.825 12.075 30.012 11.977s21.892-4.587 29.803-12.497c7.91-7.91 12.395-18.611 12.493-29.798s-4.203-21.965-11.977-30.012l-177.62-177.621 115.198-198.912c27.221-47.061 97.024-40.832 115.541 10.283l225.408 623.147z" />
<glyph unicode="&#xe914;" glyph-name="angle-left" d="M661.329 682.663c0 8.437-2.505 16.685-7.194 23.7s-11.349 12.482-19.145 15.711c-7.795 3.229-16.375 4.073-24.649 2.428-8.277-1.645-15.876-5.708-21.845-11.673l-213.333-213.334c-7.999-8-12.492-18.85-12.492-30.165s4.494-22.165 12.492-30.165l213.333-213.333c5.969-5.965 13.568-10.027 21.845-11.674 8.273-1.643 16.853-0.798 24.649 2.428 7.795 3.23 14.455 8.695 19.145 15.714 4.689 7.014 7.194 15.262 7.194 23.697v426.667z" />
<glyph unicode="&#xe915;" glyph-name="camping" d="M85.333 64v128c0 9.246 1.422 18.133 4.267 26.667s7.111 16.713 12.8 24.533l356.267 480-49.067 66.133c-3.555 4.978-6.045 10.127-7.467 15.445s-1.778 10.653-1.067 16c0.711 5.348 2.489 10.511 5.333 15.488s6.755 9.245 11.733 12.8c9.954 7.111 20.621 9.956 32 8.533s20.621-7.111 27.733-17.067l34.133-45.867 34.133 45.867c7.113 9.956 16.354 15.645 27.733 17.067s22.046-1.422 32-8.533c9.954-7.111 15.646-16.355 17.067-27.733s-1.421-22.044-8.533-32l-49.067-66.133 356.267-480c5.687-7.821 9.954-16 12.8-24.533s4.267-17.421 4.267-26.667v-128c0-12.087-4.083-22.229-12.245-30.421s-18.304-12.275-30.421-12.245h-768c-12.089 0-22.215 4.096-30.379 12.288s-12.259 18.317-12.288 30.379zM350.933 106.667h322.133l-161.067 225.067-161.067-225.067z" />
<glyph unicode="&#xe916;" glyph-name="angle-right" d="M362.665 255.991c0.002-8.435 2.505-16.683 7.194-23.697s11.351-12.484 19.147-15.71c7.795-3.23 16.372-4.075 24.648-2.428 8.275 1.643 15.876 5.705 21.845 11.669l213.333 213.333c7.996 8.004 12.493 18.854 12.493 30.165 0 11.315-4.497 22.165-12.493 30.165l-213.333 213.335c-5.969 5.965-13.57 10.027-21.845 11.673s-16.852 0.8-24.648-2.428c-7.795-3.229-14.458-8.695-19.147-15.71s-7.192-15.262-7.194-23.7v-426.669z" />
<glyph unicode="&#xe917;" glyph-name="remove" d="M85.333 448c0 235.642 191.025 426.667 426.667 426.667 235.639 0 426.667-191.025 426.667-426.667 0-235.639-191.027-426.667-426.667-426.667-235.642 0-426.667 191.027-426.667 426.667zM414.17 606.17c-16.663 16.662-43.677 16.662-60.34 0s-16.662-43.677 0-60.34l97.831-97.83-97.831-97.83c-16.662-16.661-16.662-43.678 0-60.339s43.677-16.661 60.34 0l97.83 97.83 97.83-97.83c16.661-16.661 43.678-16.661 60.339 0s16.661 43.678 0 60.339l-97.83 97.83 97.83 97.83c16.661 16.663 16.661 43.677 0 60.34s-43.678 16.662-60.339 0l-97.83-97.831-97.83 97.831z" />
<glyph unicode="&#xe918;" glyph-name="relax" d="M512.004 789.333c47.36 0 85.333-37.973 85.333-85.333s-37.973-85.333-85.333-85.333c-47.36 0-85.333 37.973-85.333 85.333s38.4 85.333 85.333 85.333zM874.667 277.333c64 0 64 85.333 0 85.333-63.996 0-156.156 40.96-217.596 114.347l-57.173 68.267c-7.94 9.623-17.911 17.367-29.197 22.679-11.29 5.312-23.612 8.058-36.083 8.041h-43.947c-26.027 0-49.92-11.093-66.135-30.72l-57.173-68.267c-61.867-73.387-154.028-114.347-218.029-114.347s-64.001-85.333 0-85.333c64.001 0 200.109 49.92 277.338 138.667v-96l-165.548-66.133c-28.587-11.52-47.787-40.533-47.787-70.827 0-42.24 34.133-76.373 76.373-76.373h94.293v21.333c0 28.288 11.238 55.42 31.242 75.426 20.003 20.002 47.134 31.241 75.427 31.241h128c11.947 0 21.333-9.387 21.333-21.333s-9.387-21.333-21.333-21.333h-128c-35.413 0-64-28.587-64-64v-21.333h307.627c42.24 0 76.373 34.133 76.373 76.373 0 30.293-19.2 59.307-47.787 70.827l-165.547 66.133v96c77.227-88.747 213.333-138.667 277.329-138.667z" />
<glyph unicode="&#xe919;" glyph-name="pointer-right" d="M469.333 874.667c-23.565 0-42.667-19.103-42.667-42.667v-725.333h-42.667c-23.564 0-42.667-19.102-42.667-42.667s19.103-42.667 42.667-42.667h170.667c23.565 0 42.667 19.102 42.667 42.667s-19.102 42.667-42.667 42.667h-42.667v725.333c0 23.564-19.102 42.667-42.667 42.667zM684.911 744.527c-9.591 2.19-19.29 2.165-26.991 2.146l-2.065-0.003h-375.616c-10.768 0.001-21.256 0.003-30.137-0.723-9.754-0.797-21.262-2.677-32.843-8.578-16.056-8.181-29.111-21.235-37.292-37.292-5.901-11.581-7.781-23.089-8.578-32.843-0.726-8.881-0.724-19.368-0.723-30.136v-122.188c-0.001-10.769-0.003-21.257 0.723-30.14 0.797-9.754 2.677-21.261 8.578-32.841 8.181-16.055 21.236-29.111 37.292-37.291 11.581-5.901 23.089-7.782 32.843-8.58 8.881-0.725 19.367-0.725 30.135-0.721l377.682-0.004c7.701-0.021 17.399-0.043 26.991 2.146 8.316 1.899 16.303 5.035 23.693 9.306 8.516 4.919 15.603 11.537 21.235 16.794l1.51 1.408 92.002 85.453c3.994 3.703 8.7 8.073 12.497 12.245 4.356 4.785 10.287 12.203 13.854 22.645 4.574 13.402 4.574 27.944 0 41.347-3.567 10.442-9.498 17.859-13.854 22.646-3.797 4.173-8.503 8.54-12.493 12.244l-93.517 86.862c-5.632 5.256-12.719 11.874-21.235 16.795-7.39 4.269-15.377 7.405-23.693 9.305z" />
<glyph unicode="&#xe91a;" glyph-name="plus" d="M768 405.419h-213.333v-213.333c0-11.315-4.497-22.17-12.497-30.17s-18.854-12.497-30.17-12.497c-11.315 0-22.17 4.497-30.17 12.497s-12.497 18.854-12.497 30.17v213.333h-213.333c-11.316 0-22.168 4.497-30.17 12.497s-12.497 18.854-12.497 30.17c0 11.315 4.495 22.17 12.497 30.17 8.002 8.004 18.854 12.497 30.17 12.497h213.333v213.334c0 11.316 4.497 22.168 12.497 30.17s18.854 12.497 30.17 12.497c11.315 0 22.17-4.495 30.17-12.497s12.497-18.854 12.497-30.17v-213.334h213.333c11.315 0 22.17-4.493 30.17-12.497 8-8 12.497-18.854 12.497-30.17s-4.497-22.17-12.497-30.17c-8-8-18.854-12.497-30.17-12.497z" />
<glyph unicode="&#xe91b;" glyph-name="play" d="M372.119 851.334c-84.83 59.44-201.452-1.245-201.452-104.827v-597.024c0-103.586 116.623-164.271 201.453-104.828l427.014 299.213c72.243 50.624 72.243 157.636 0 208.258l-427.015 299.208z" />
<glyph unicode="&#xe91c;" glyph-name="plane" d="M177.78 632.89l163.555-47.218 179.769 130.56-257.991-7.395c-2.526-0.138-4.975-0.922-7.111-2.275l-81.635-46.934c-2.54-1.407-4.599-3.543-5.911-6.133s-1.817-5.513-1.449-8.393c0.367-2.88 1.591-5.583 3.511-7.76s4.45-3.728 7.262-4.451zM981.901 779.093l-179.2 38.685c-15.070 3.272-30.669 3.263-45.739-0.025-15.066-3.288-29.248-9.78-41.587-19.033l-541.297-393.387-129.991 5.687c-7.446 0.256-14.783-1.839-20.975-5.978-6.193-4.143-10.928-10.125-13.537-17.105-2.609-6.976-2.96-14.601-1.004-21.79 1.956-7.185 6.121-13.581 11.907-18.274l126.578-100.407c2.084-1.681 4.564-2.799 7.204-3.247s5.35-0.213 7.872 0.687c36.124 13.939 170.667 85.333 329.67 172.659l31.859-327.398c0.269-2.833 1.31-5.542 3.004-7.829 1.698-2.287 3.985-4.070 6.622-5.154 2.633-1.084 5.513-1.425 8.329-0.994 2.816 0.435 5.457 1.63 7.646 3.456l71.108 59.162c3.895 3.268 6.515 7.799 7.398 12.8l67.413 378.027c113.775 63.148 222.434 124.304 298.948 167.539 7.945 4.321 14.362 10.978 18.394 19.069s5.474 17.227 4.143 26.168c-1.335 8.941-5.389 17.255-11.605 23.817-6.221 6.562-14.306 11.053-23.159 12.866z" />
<glyph unicode="&#xe91d;" glyph-name="outdoor" d="M725.333 21.333c70.827 0 128 57.173 128 128s-57.173 128-128 128c-55.467 0-102.4-35.84-120.32-85.333h-215.038l84.905 130.56c24.631-3.401 49.613-3.401 74.24 0l43.52-66.987c17.92 22.613 40.96 40.533 68.267 51.627l-25.6 39.68c89.6 40.533 155.307 123.733 171.52 223.573 4.267 25.173-16.64 48.213-42.24 48.213h-505.171c-25.6 0-46.507-23.040-42.24-48.64 8.030-48.486 27.88-94.246 57.795-133.239s68.974-70.020 113.725-90.334l-168.533-259.413c-6.135-9.459-8.277-20.958-5.958-31.991s8.909-20.698 18.332-26.889c9.458-6.135 20.96-8.277 31.992-5.956 11.032 2.317 20.699 8.909 26.888 18.33l42.667 66.133h270.505c18.347-49.493 65.28-85.333 120.747-85.333zM725.333 192c23.467 0 42.667-19.2 42.667-42.667s-19.2-42.667-42.667-42.667c-23.467 0-42.667 19.2-42.667 42.667s19.2 42.667 42.667 42.667zM405.335 683.947c-0.853-11.947 7.68-22.613 19.627-22.613h1.705c10.24 0 18.773 7.68 19.627 17.92 4.267 37.12 1.707 59.307-40.105 108.373-15.36 18.347-25.6 29.44-22.613 66.133 1.28 11.093-8.107 20.907-19.627 20.907h-2.133c-10.24 0-19.2-8.107-20.053-18.347-3.413-39.68 8.533-74.24 40.533-107.947 8.107-8.96 27.307-23.893 23.040-64.427zM511.573 683.947c-1.28-11.947 7.68-22.613 19.627-22.613h1.28c10.24 0 18.773 7.68 19.627 17.92 4.267 37.12 1.707 59.307-40.107 108.373-15.36 18.347-26.027 29.44-22.613 66.133 1.28 11.093-8.107 20.907-19.627 20.907h-2.133c-10.24 0-19.2-8.107-20.053-18.347-3.413-39.68 8.533-74.24 40.533-107.947 8.107-8.96 27.307-23.893 23.467-64.427zM618.667 683.947c-0.853-11.947 7.68-22.613 19.627-22.613h1.707c10.24 0 18.773 7.68 19.627 17.92 4.267 37.12 1.707 59.307-40.107 108.373-15.36 18.347-26.027 29.44-22.613 66.133 1.28 11.093-8.107 20.907-19.627 20.907h-2.133c-10.24 0-19.2-8.107-20.053-18.347-3.413-39.68 8.533-74.24 40.533-107.947 8.107-8.96 27.307-23.893 23.040-64.427z" />
<glyph unicode="&#xe91e;" glyph-name="moon" d="M521.25 894.526c88.107-4.666 172.493-37.001 241.156-92.404 60.066-48.697 105.37-113.171 130.825-186.185s30.059-151.677 13.291-227.163c-16.764-75.482-54.238-144.802-108.215-200.171-53.973-55.369-122.313-94.601-197.342-113.289-87.505-22.106-179.848-14.886-262.858 20.54-81.153 34.615-149.321 93.948-194.804 169.549-3.006 4.979-4.598 10.688-4.603 16.503-0.006 5.82 1.574 11.529 4.57 16.512 2.996 4.988 7.295 9.062 12.434 11.789s10.925 4.002 16.733 3.686c63.667-3.14 126.993 11.055 183.229 41.071 56.236 30.012 103.278 74.722 136.106 129.361 32.832 54.641 50.223 117.164 50.325 180.908 0.098 63.744-17.097 126.322-49.758 181.064-3.008 4.98-4.599 10.686-4.604 16.504s1.574 11.527 4.57 16.513c2.995 4.986 7.296 9.062 12.437 11.788 5.137 2.726 10.923 4 16.73 3.683l-0.222-0.262z" />
<glyph unicode="&#xe91f;" glyph-name="minus" d="M768 405.333h-512c-11.316 0-22.168 4.497-30.17 12.497s-12.497 18.854-12.497 30.17c0 11.315 4.495 22.17 12.497 30.17s18.854 12.497 30.17 12.497h512c11.315 0 22.17-4.497 30.17-12.497s12.497-18.854 12.497-30.17c0-11.315-4.497-22.17-12.497-30.17s-18.854-12.497-30.17-12.497z" />
<glyph unicode="&#xe920;" glyph-name="menu" d="M128 661.333c0-23.564 19.103-42.667 42.667-42.667h682.667c23.565 0 42.667 19.103 42.667 42.667s-19.102 42.667-42.667 42.667h-682.667c-23.564 0-42.667-19.103-42.667-42.667zM128 448c0-23.565 19.103-42.667 42.667-42.667h682.667c23.565 0 42.667 19.102 42.667 42.667s-19.102 42.667-42.667 42.667h-682.667c-23.564 0-42.667-19.102-42.667-42.667zM170.667 277.333h682.667c23.565 0 42.667-19.102 42.667-42.667s-19.102-42.667-42.667-42.667h-682.667c-23.564 0-42.667 19.102-42.667 42.667s19.103 42.667 42.667 42.667z" />
<glyph unicode="&#xe921;" glyph-name="menu-open" d="M170.667 704h469.333c23.565 0 42.667-19.103 42.667-42.667s-19.102-42.667-42.667-42.667h-469.333c-23.564 0-42.667 19.103-42.667 42.667s19.103 42.667 42.667 42.667zM652.497 417.83c-16.661 16.661-16.661 43.678 0 60.339l170.667 170.667c16.661 16.662 43.678 16.662 60.339 0s16.661-43.677 0-60.34l-140.497-140.497 140.497-140.497c16.661-16.661 16.661-43.678 0-60.339s-43.678-16.661-60.339 0l-170.667 170.667zM128 448c0-23.565 19.103-42.667 42.667-42.667h341.333c23.565 0 42.667 19.102 42.667 42.667s-19.102 42.667-42.667 42.667h-341.333c-23.564 0-42.667-19.102-42.667-42.667zM170.667 277.333h469.333c23.565 0 42.667-19.102 42.667-42.667s-19.102-42.667-42.667-42.667h-469.333c-23.564 0-42.667 19.102-42.667 42.667s19.103 42.667 42.667 42.667z" />
<glyph unicode="&#xe922;" glyph-name="mail" d="M99.284 719.444c12.272 24.085 31.853 43.666 55.938 55.938 27.38 13.951 63.224 13.951 134.911 13.951h443.733c71.689 0 107.529 0 134.912-13.951 24.085-12.272 43.665-31.853 55.936-55.938 13.952-27.38 13.952-63.224 13.952-134.911v-273.067c0-71.689 0-107.529-13.952-134.912-12.271-24.085-31.851-43.665-55.936-55.936-27.383-13.952-63.223-13.952-134.912-13.952h-443.733c-71.687 0-107.53 0-134.911 13.952-24.085 12.271-43.666 31.851-55.938 55.936-13.951 27.383-13.951 63.223-13.951 134.912v273.067c0 71.687 0 107.53 13.951 134.911zM322.803 611.184c-19.432 13.33-45.99 8.384-59.32-11.048s-8.384-45.99 11.048-59.32l165.060-113.232c43.635-29.931 101.184-29.931 144.819 0l165.060 113.232c19.43 13.33 24.375 39.888 11.046 59.32s-39.889 24.378-59.319 11.048l-165.060-113.234c-14.545-9.975-33.728-9.975-48.273 0l-165.061 113.234z" />
<glyph unicode="&#xe923;" glyph-name="logout" d="M426.667 490.667v163.778c-0.001 22.49-0.001 41.896 1.306 57.876 1.378 16.868 4.42 33.646 12.646 49.79 12.271 24.084 31.851 43.666 55.936 55.938 16.145 8.226 32.922 11.269 49.792 12.647 15.979 1.306 35.383 1.305 57.873 1.304h114.227c22.49 0.001 41.894 0.001 57.873-1.304 16.87-1.378 33.647-4.421 49.792-12.647 24.085-12.272 43.665-31.853 55.936-55.938 8.226-16.144 11.268-32.922 12.646-49.789 1.306-15.982 1.306-35.386 1.306-57.878v-412.89c0-22.49 0-41.894-1.306-57.873-1.378-16.87-4.42-33.647-12.646-49.792-12.271-24.085-31.851-43.665-55.936-55.936-16.145-8.226-32.922-11.268-49.792-12.646-15.979-1.306-35.383-1.306-57.877-1.306h-114.219c-22.494 0-41.899 0-57.877 1.306-16.87 1.378-33.647 4.42-49.792 12.646-24.085 12.271-43.665 31.851-55.936 55.936-8.226 16.145-11.268 32.922-12.646 49.792-1.307 15.979-1.306 35.383-1.306 57.873v163.78h256c23.565 0 42.667 19.102 42.667 42.667s-19.102 42.667-42.667 42.667h-256zM328.837 350.17c16.662-16.661 16.662-43.678 0-60.339s-43.677-16.661-60.34 0l-128 128c-16.662 16.661-16.662 43.678 0 60.339l128 128c16.663 16.662 43.677 16.662 60.34 0s16.662-43.677 0-60.34l-55.164-55.163h152.994v-85.333h-152.994l55.164-55.164z" />
<glyph unicode="&#xe924;" glyph-name="location" d="M128 490.667c0 212.077 171.923 384 384 384 212.079 0 384-171.923 384-384 0-129.126-77.218-238.583-166.191-315.691l-146.833-127.258c-40.734-35.302-101.218-35.302-141.952 0l-146.835 127.258c-88.972 77.107-166.189 186.564-166.189 315.691zM512 405.333c47.13 0 85.333 38.204 85.333 85.333 0 47.128-38.204 85.333-85.333 85.333s-85.333-38.205-85.333-85.333c0-47.13 38.204-85.333 85.333-85.333z" />
<glyph unicode="&#xe925;" glyph-name="location-off" d="M219.972 740.029c-57.344-67.092-91.972-154.183-91.972-249.362 0-129.126 77.217-238.579 166.189-315.691l146.835-127.258c40.734-35.302 101.218-35.302 141.952 0l146.833 127.258c9.749 8.448 19.354 17.28 28.727 26.487l-538.565 538.565zM392.012 855.536c37.804 12.426 78.158 19.131 119.988 19.131 212.079 0 384-171.923 384-384 0-43.883-8.986-85.649-24.294-124.553-8.627-21.926-33.399-32.708-55.326-24.081s-32.708 33.395-24.081 55.326c11.827 30.067 18.368 61.252 18.368 93.308 0 164.949-133.717 298.667-298.667 298.667-32.666 0-64.030-5.229-93.343-14.864-22.386-7.358-46.498 4.825-53.856 27.211s4.825 46.498 27.211 53.856zM97.83 862.17c16.663 16.662 43.677 16.662 60.34 0l768-768c16.661-16.661 16.661-43.678 0-60.339s-43.678-16.661-60.339 0l-768 768c-16.662 16.663-16.662 43.677 0 60.34z" />
<glyph unicode="&#xe926;" glyph-name="list-boxes" d="M597.333 704c-23.565 0-42.667-19.103-42.667-42.667s19.102-42.667 42.667-42.667h256c23.565 0 42.667 19.103 42.667 42.667s-19.102 42.667-42.667 42.667h-256zM597.333 277.333c-23.565 0-42.667-19.102-42.667-42.667s19.102-42.667 42.667-42.667h256c23.565 0 42.667 19.102 42.667 42.667s-19.102 42.667-42.667 42.667h-256zM137.301 785.407c-9.301-18.254-9.301-42.15-9.301-89.94v-68.267c0-47.791 0-71.687 9.301-89.94 8.181-16.056 21.235-29.112 37.292-37.292 18.254-9.301 42.15-9.301 89.94-9.301h68.267c47.791 0 71.687 0 89.94 9.301 16.056 8.179 29.112 21.235 37.292 37.292 9.301 18.254 9.301 42.15 9.301 89.94v68.267c0 47.791 0 71.687-9.301 89.94-8.179 16.057-21.235 29.111-37.292 37.292-18.254 9.301-42.15 9.301-89.94 9.301h-68.267c-47.791 0-71.687 0-89.94-9.301-16.057-8.181-29.111-21.235-37.292-37.292zM137.301 358.741c-9.301-18.253-9.301-42.15-9.301-89.941v-68.267c0-47.791 0-71.689 9.301-89.941 8.181-16.055 21.235-29.111 37.292-37.291 18.254-9.301 42.15-9.301 89.94-9.301h68.267c47.791 0 71.687 0 89.94 9.301 16.056 8.179 29.112 21.235 37.292 37.291 9.301 18.253 9.301 42.15 9.301 89.941v68.267c0 47.791 0 71.689-9.301 89.941-8.179 16.055-21.235 29.111-37.292 37.291-18.254 9.301-42.15 9.301-89.94 9.301h-68.267c-47.791 0-71.687 0-89.94-9.301-16.057-8.179-29.111-21.235-37.292-37.291z" />
<glyph unicode="&#xe927;" glyph-name="image" d="M128 558.933v-221.867c0-9.088 9.969-14.639 17.699-9.86l85.924 53.137c14.067 8.734 28.215 17.519 44.154 21.619 13.913 3.58 28.406 4.309 42.609 2.15 16.271-2.475 31.232-9.792 46.106-17.062l26.091-12.706c22.587-10.991 25.281-11.721 27.081-11.959 3.037-0.401 6.126-0.141 9.054 0.759 1.737 0.533 4.271 1.702 24.713 16.299l110.882 79.177c16.397 11.763 32.845 23.565 51.831 28.629 16.538 4.416 33.89 4.783 50.598 1.075 19.187-4.254 36.126-15.347 53.005-26.402l125.483-81.779c17.173-11.191 25.758-16.785 32.866-16.307 6.191 0.414 11.895 3.503 15.625 8.465 4.279 5.696 4.279 15.945 4.279 36.437v150.195c0 95.582 0 143.373-18.603 179.881-16.363 32.113-42.47 58.222-74.581 74.584-36.51 18.601-84.301 18.601-179.883 18.601h-221.867c-95.582 0-143.373 0-179.881-18.601-32.113-16.363-58.222-42.471-74.584-74.584-18.601-36.508-18.601-84.299-18.601-179.881zM149.129 229.001l124.016 76.681c19.84 12.271 22.233 13.21 23.89 13.636 2.782 0.717 5.681 0.862 8.522 0.431 1.691-0.256 4.166-0.951 25.141-11.162l26.373-12.843c15.975-7.812 32.032-15.667 49.443-17.963 15.188-2.001 30.626-0.708 45.269 3.793 16.789 5.158 31.313 15.578 45.769 25.937l110.37 78.814c23.322 16.649 26.283 17.958 28.224 18.479 3.307 0.879 6.775 0.956 10.121 0.213 1.958-0.435 4.975-1.617 28.979-17.259l203.307-132.489c5.973-3.891 8.96-5.841 11.115-8.555 1.843-2.321 3.298-5.291 4.006-8.166 0.828-3.371 0.559-6.707 0.017-13.389-2.321-28.553-6.972-49.681-16.294-67.977-16.363-32.111-42.47-58.219-74.581-74.581-36.51-18.603-84.301-18.603-179.883-18.603h-221.867c-95.582 0-143.373 0-179.881 18.603-32.113 16.363-58.222 42.47-74.584 74.581-5.919 11.618-9.955 24.38-12.706 39.458-1.229 6.733-1.844 10.103-1.155 13.914 0.567 3.14 2.16 6.724 4.111 9.25 2.368 3.063 5.672 5.107 12.278 9.195zM469.333 576c0-47.13-38.204-85.333-85.333-85.333-47.128 0-85.333 38.204-85.333 85.333s38.205 85.333 85.333 85.333c47.13 0 85.333-38.205 85.333-85.333z" />
<glyph unicode="&#xe928;" glyph-name="home" d="M542.204 828.553c-19.849 4.818-40.559 4.818-60.403 0-22.677-5.507-42.705-19.115-65.498-34.606l-213.385-144.571c-18.193-12.295-34.213-23.121-46.225-37.894-10.535-12.955-18.434-27.847-23.25-43.836-5.492-18.23-5.469-37.565-5.444-59.525l0.003-266.581c-0.001-22.49-0.001-41.894 1.304-57.877 1.378-16.866 4.421-33.643 12.647-49.788 12.272-24.085 31.853-43.665 55.938-55.936 16.144-8.226 32.922-11.273 49.789-12.651 15.982-1.306 35.384-1.301 57.876-1.301h412.891c22.49 0 41.894-0.004 57.877 1.301 16.866 1.378 33.643 4.425 49.788 12.651 24.085 12.271 43.665 31.851 55.94 55.936 8.226 16.145 11.268 32.922 12.646 49.788 1.306 15.983 1.306 35.388 1.301 57.877l0.004 266.581c0.026 21.961 0.047 41.295-5.444 59.525-4.817 15.989-12.715 30.881-23.249 43.836-12.011 14.772-28.032 25.598-46.225 37.894l-213.385 144.571c-22.797 15.491-42.82 29.099-65.498 34.606z" />
<glyph unicode="&#xe929;" glyph-name="login" d="M469.333 874.667c-33.946 0-66.505-13.486-90.51-37.49s-37.49-56.562-37.49-90.51v-597.333c0-33.946 13.486-66.505 37.49-90.509s56.564-37.491 90.51-37.491h256c33.946 0 66.505 13.487 90.509 37.491s37.491 56.563 37.491 90.509v597.333c0 33.948-13.487 66.505-37.491 90.51s-56.563 37.49-90.509 37.49h-256zM524.501 606.165c8 7.999 18.85 12.492 30.165 12.492s22.165-4.494 30.165-12.492l128-128c8-8 12.493-18.85 12.493-30.165s-4.493-22.165-12.493-30.165l-128-128c-8.047-7.774-18.825-12.075-30.012-11.977s-21.888 4.587-29.798 12.497c-7.91 7.91-12.399 18.611-12.497 29.798s4.203 21.965 11.977 30.012l55.168 55.168h-366.336c-11.316 0-22.168 4.497-30.17 12.497s-12.497 18.854-12.497 30.17c0 11.315 4.495 22.17 12.497 30.17s18.854 12.497 30.17 12.497h366.336l-55.168 55.168c-8 8.001-12.493 18.852-12.493 30.165s4.493 22.164 12.493 30.165z" />
<glyph unicode="&#xe92a;" glyph-name="grid" d="M664.239 832c-10.769 0.001-21.257 0.003-30.135-0.723-9.754-0.797-21.265-2.677-32.845-8.578-16.055-8.181-29.111-21.236-37.291-37.292-5.901-11.581-7.782-23.089-8.576-32.843-0.73-8.881-0.725-19.368-0.725-30.137v-122.188c0-10.769-0.004-21.256 0.725-30.137 0.794-9.753 2.675-21.262 8.576-32.843 8.179-16.056 21.235-29.112 37.291-37.291 11.58-5.901 23.091-7.782 32.845-8.58 8.879-0.725 19.366-0.721 30.135-0.721h122.189c10.769 0 21.257-0.004 30.135 0.721 9.754 0.798 21.265 2.679 32.845 8.58 16.055 8.179 29.111 21.235 37.291 37.291 5.901 11.581 7.782 23.089 8.58 32.843 0.725 8.881 0.721 19.369 0.721 30.137v122.188c0 10.769 0.004 21.256-0.721 30.137-0.798 9.754-2.679 21.262-8.58 32.843-8.179 16.056-21.235 29.111-37.291 37.292-11.58 5.901-23.091 7.781-32.845 8.578-8.879 0.726-19.366 0.724-30.135 0.723h-122.189zM237.573 405.333c-10.769 0-21.256 0.004-30.137-0.725-9.754-0.794-21.262-2.675-32.843-8.576-16.056-8.179-29.111-21.235-37.292-37.291-5.901-11.58-7.781-23.091-8.578-32.845-0.726-8.879-0.724-19.366-0.723-30.135v-122.189c-0.001-10.769-0.003-21.257 0.723-30.135 0.797-9.754 2.677-21.265 8.578-32.845 8.181-16.055 21.236-29.111 37.292-37.291 11.581-5.901 23.089-7.782 32.843-8.58 8.881-0.725 19.368-0.721 30.137-0.721h122.188c10.769 0 21.256-0.004 30.137 0.721 9.753 0.798 21.262 2.679 32.843 8.58 16.056 8.179 29.112 21.235 37.291 37.291 5.901 11.58 7.782 23.091 8.58 32.845 0.725 8.879 0.721 19.366 0.721 30.135v122.189c0 10.769 0.004 21.257-0.721 30.135-0.798 9.754-2.679 21.265-8.58 32.845-8.179 16.055-21.235 29.111-37.291 37.291-11.581 5.901-23.089 7.782-32.843 8.576-8.881 0.73-19.369 0.725-30.137 0.725h-122.188zM664.239 405.333c-10.769 0-21.257 0.004-30.135-0.725-9.754-0.794-21.265-2.675-32.845-8.576-16.055-8.179-29.111-21.235-37.291-37.291-5.901-11.58-7.782-23.091-8.576-32.845-0.73-8.879-0.725-19.366-0.725-30.135v-122.189c0-10.769-0.004-21.257 0.725-30.135 0.794-9.754 2.675-21.265 8.576-32.845 8.179-16.055 21.235-29.111 37.291-37.291 11.58-5.901 23.091-7.782 32.845-8.58 8.879-0.725 19.366-0.721 30.135-0.721h122.189c10.769 0 21.257-0.004 30.135 0.721 9.754 0.798 21.265 2.679 32.845 8.58 16.055 8.179 29.111 21.235 37.291 37.291 5.901 11.58 7.782 23.091 8.58 32.845 0.725 8.879 0.721 19.366 0.721 30.135v122.189c0 10.769 0.004 21.257-0.721 30.135-0.798 9.754-2.679 21.265-8.58 32.845-8.179 16.055-21.235 29.111-37.291 37.291-11.58 5.901-23.091 7.782-32.845 8.576-8.879 0.73-19.366 0.725-30.135 0.725h-122.189zM237.573 832c-10.768 0.001-21.256 0.003-30.137-0.723-9.754-0.797-21.262-2.677-32.843-8.578-16.056-8.181-29.111-21.236-37.292-37.292-5.901-11.581-7.781-23.089-8.578-32.843-0.726-8.881-0.724-19.368-0.723-30.136v-122.189c-0.001-10.768-0.003-21.256 0.723-30.137 0.797-9.753 2.677-21.262 8.578-32.843 8.181-16.056 21.236-29.112 37.292-37.291 11.581-5.901 23.089-7.782 32.843-8.58 8.881-0.725 19.367-0.721 30.135-0.721h122.19c10.768 0 21.256-0.004 30.137 0.721 9.753 0.798 21.262 2.679 32.843 8.58 16.056 8.179 29.112 21.235 37.291 37.291 5.901 11.581 7.782 23.089 8.58 32.843 0.725 8.881 0.721 19.368 0.721 30.135v122.19c0 10.768 0.004 21.256-0.721 30.137-0.798 9.754-2.679 21.262-8.58 32.843-8.179 16.056-21.235 29.111-37.291 37.292-11.581 5.901-23.089 7.781-32.843 8.578-8.881 0.726-19.369 0.724-30.136 0.723h-122.189z" />
<glyph unicode="&#xe92b;" glyph-name="food" d="M358.4 729.6c-15.36 0-25.6-15.36-25.6-25.6v-128h-51.2v128c0 15.36-10.24 25.6-25.6 25.6s-25.6-15.36-25.6-25.6v-128h-51.2v128c0 15.36-10.24 25.6-25.6 25.6s-25.6-15.36-25.6-25.6v-168.96c0-46.080 35.84-81.92 76.8-87.040v-358.4c0-30.72 20.48-51.2 51.2-51.2s51.2 20.48 51.2 51.2v358.4c40.96 5.12 76.8 40.96 76.8 87.040v168.96c0 10.24-10.24 25.6-25.6 25.6zM460.8 704v-307.2h51.2v-307.2c0-30.72 20.48-51.2 51.2-51.2s51.2 20.48 51.2 51.2v768c-87.040 0-153.6-66.56-153.6-153.6zM819.2 755.2c-71.68 0-128-76.8-128-168.96-5.12-61.44 25.6-117.76 76.8-153.6v-343.040c0-30.72 20.48-51.2 51.2-51.2s51.2 20.48 51.2 51.2v343.040c51.2 35.84 81.92 92.16 76.8 153.6 0 92.16-56.32 168.96-128 168.96z" />
<glyph unicode="&#xe92c;" glyph-name="favorite-outline" d="M512 55.467c-21.333 0-42.667 8.533-59.733 21.333l-4.267 4.267c-110.933 98.133-204.8 183.467-268.8 264.533-68.267 85.333-98.133 157.867-98.133 234.667 4.267 72.533 38.4 140.8 98.133 183.467 102.4 72.533 243.2 51.2 328.533-46.933 85.333 98.133 221.867 119.467 328.533 46.933 59.733-42.667 98.133-110.933 98.133-183.467 4.267-76.8-25.6-149.333-98.133-234.667-64-76.8-153.6-162.133-268.8-264.533l-4.267-4.267c-8.533-12.8-29.867-21.333-51.2-21.333zM320 725.333c-29.867 0-59.733-8.533-85.333-25.6-38.4-25.6-64-72.533-64-119.467 0-55.467 21.333-110.933 76.8-179.2 59.733-72.533 153.6-157.867 260.267-256l4.267-4.267 4.267 4.267c110.933 102.4 200.533 183.467 260.267 256 55.467 68.267 81.067 123.733 76.8 179.2 0 46.933-25.6 89.6-64 115.2-76.8 51.2-166.4 21.333-213.333-29.867l-64-76.8-64 76.8c-29.867 34.133-76.8 59.733-128 59.733z" />
<glyph unicode="&#xe92d;" glyph-name="favorite" d="M569.6 79.36c-32.427-29.44-82.347-29.44-114.773 0.427l-4.693 4.267c-223.999 202.667-370.345 335.36-364.799 500.907 2.56 72.533 39.68 142.080 99.84 183.040 112.64 76.8 251.732 40.96 326.825-46.933 75.093 87.893 214.187 124.16 326.827 46.933 60.16-40.96 97.28-110.507 99.84-183.040 5.973-165.547-140.8-298.24-364.8-501.76l-4.267-3.84z" />
<glyph unicode="&#xe92e;" glyph-name="eye" d="M168.449 391.765c-3.82-10.428-11.555-18.957-21.563-23.774-10.007-4.813-21.498-5.538-32.031-2.014-10.533 3.52-19.277 11.012-24.375 20.877-5.098 9.869-6.148 21.333-2.926 31.962 1.517 4.698 3.283 9.399 5.291 13.909 3.413 8.107 8.448 19.285 15.36 32.512 14.080 26.453 36.011 61.696 68.352 96.939 65.28 71.253 172.203 141.824 335.444 141.824 163.243 0 270.165-70.571 335.445-141.824 34.846-38.229 63.104-81.971 83.627-129.451l3.925-9.643c0.256-0.683 1.109-5.12 1.963-9.387l1.707-8.363c0 0 7.168-28.416-29.184-40.448-10.705-3.575-22.391-2.765-32.499 2.257-10.108 5.026-17.813 13.845-21.431 24.538v0.256l-0.512 1.365c-4.284 10.961-9.186 21.675-14.677 32.085-15.172 28.629-33.924 55.211-55.808 79.104-52.053 56.747-137.131 114.176-272.555 114.176-135.423 0-220.5-57.429-272.553-114.176-28.182-30.895-51.101-66.21-67.84-104.533-0.896-2.202-1.749-4.42-2.56-6.656l-0.597-1.536zM341.335 362.667c0 45.265 17.981 88.674 49.987 120.678 32.006 32.009 75.418 49.988 120.678 49.988 45.265 0 88.674-17.98 120.683-49.988 32.004-32.004 49.984-75.413 49.984-120.678s-17.98-88.674-49.984-120.678c-32.009-32.009-75.418-49.988-120.683-49.988-45.261 0-88.672 17.98-120.678 49.988-32.006 32.004-49.987 75.413-49.987 120.678z" />
<glyph unicode="&#xe92f;" glyph-name="eye-off" d="M759.893 388.693c75.11 61.696 123.802 149.767 136.107 246.187 0.67 5.603 0.235 11.284-1.289 16.718s-4.105 10.514-7.59 14.952c-3.486 4.437-7.812 8.145-12.732 10.91s-10.334 4.535-15.936 5.207c-5.602 0.672-11.285 0.234-16.717-1.289-5.436-1.523-10.517-4.102-14.955-7.588s-8.145-7.813-10.91-12.732c-2.765-4.919-4.535-10.335-5.205-15.938-10.202-71.948-46.033-137.796-100.902-185.438-54.874-47.642-125.099-73.873-197.764-73.873-72.67 0-142.894 26.231-197.766 73.873s-90.702 113.489-100.902 185.438c-0.672 5.603-2.442 11.019-5.207 15.938s-6.473 9.245-10.91 12.732c-4.438 3.486-9.518 6.065-14.952 7.588s-11.115 1.961-16.718 1.289c-5.603-0.672-11.019-2.442-15.938-5.207s-9.245-6.473-12.732-10.91c-3.486-4.437-6.065-9.518-7.588-14.952s-1.961-11.115-1.289-16.718c12.196-96.356 60.729-184.418 135.68-246.187l-98.133-98.987c-6.99-8.162-10.642-18.662-10.228-29.402 0.415-10.735 4.866-20.924 12.465-28.523s17.785-12.049 28.523-12.463c10.738-0.414 21.237 3.238 29.399 10.227l111.36 110.933c41.379-20.911 86.181-34.206 132.268-39.253v-151.893c0-11.315 4.493-22.17 12.497-30.17 8-8 18.854-12.497 30.17-12.497s22.165 4.497 30.17 12.497c8 8 12.497 18.854 12.497 30.17v151.893c46.084 5.047 90.889 18.342 132.267 39.253l111.36-110.933c8.162-6.989 18.658-10.641 29.397-10.227s20.924 4.864 28.523 12.463c7.599 7.599 12.053 17.788 12.467 28.523 0.414 10.739-3.238 21.239-10.227 29.402l-98.56 98.987z" />
<glyph unicode="&#xe930;" glyph-name="edit" d="M170.667 64c0 23.565 19.103 42.667 42.667 42.667h597.333c23.565 0 42.667-19.102 42.667-42.667s-19.102-42.667-42.667-42.667h-597.333c-23.564 0-42.667 19.102-42.667 42.667zM765.926 837.26c-49.988 49.987-131.034 49.987-181.018 0.001l-333.78-333.777c-7.801-7.799-13.452-17.485-16.407-28.113l-62.182-223.693c-9.78-35.183 22.603-67.567 57.789-57.788l223.692 62.182c10.628 2.953 20.314 8.606 28.113 16.405l333.777 333.775c49.988 49.987 49.988 131.032 0.004 181.020l-49.988 49.987z" />
<glyph unicode="&#xe931;" glyph-name="dots" d="M810.667 362.667c-21.333 0-42.667 8.533-59.733 25.6s-25.6 38.4-25.6 59.733 8.533 42.667 25.6 59.733c34.133 34.133 89.6 34.133 119.467 0 17.067-17.067 25.6-38.4 25.6-59.733s-8.533-42.667-25.6-59.733-38.4-25.6-59.733-25.6zM512 362.667c-21.333 0-42.667 8.533-59.733 25.6s-25.6 38.4-25.6 59.733 8.533 42.667 25.6 59.733c34.133 34.133 89.6 34.133 119.467 0 17.067-17.067 25.6-38.4 25.6-59.733s-8.533-42.667-25.6-59.733-38.4-25.6-59.733-25.6zM213.333 362.667c-21.333 0-42.667 8.533-59.733 25.6s-25.6 38.4-25.6 59.733 8.533 42.667 25.6 59.733c34.133 34.133 89.6 34.133 119.467 0 17.067-17.067 25.6-38.4 25.6-59.733s-8.533-42.667-25.6-59.733-38.4-25.6-59.733-25.6z" />
<glyph unicode="&#xe932;" glyph-name="dollar" d="M512 21.333c-235.642 0-426.667 191.027-426.667 426.667 0 235.642 191.025 426.667 426.667 426.667 235.639 0 426.667-191.025 426.667-426.667 0-235.639-191.027-426.667-426.667-426.667zM426.667 576c0 23.564 19.102 42.667 42.667 42.667h85.333c23.565 0 42.667-19.103 42.667-42.667s19.102-42.667 42.667-42.667c23.565 0 42.667 19.103 42.667 42.667 0 70.692-57.306 128-128 128v42.667c0 23.564-19.102 42.667-42.667 42.667s-42.667-19.103-42.667-42.667v-42.667c-70.692 0-128-57.308-128-128v-23.828c0-55.096 35.255-104.009 87.522-121.43l139.302-46.434c17.425-5.807 29.175-22.114 29.175-40.478v-23.829c0-23.565-19.102-42.667-42.667-42.667h-85.333c-23.565 0-42.667 19.102-42.667 42.667s-19.103 42.667-42.667 42.667c-23.564 0-42.667-19.102-42.667-42.667 0-70.694 57.308-128 128-128v-42.667c0-23.565 19.102-42.667 42.667-42.667s42.667 19.102 42.667 42.667v42.667c70.694 0 128 57.306 128 128v23.829c0 55.095-35.255 104.009-87.522 121.429l-139.302 46.434c-17.425 5.807-29.175 22.114-29.175 40.479v23.828z" />
<glyph unicode="&#xe933;" glyph-name="discount" d="M793.604 823.467c18.85-14.138 22.669-40.882 8.533-59.733l-512.002-682.667c-14.138-18.85-40.882-22.673-59.733-8.533s-22.672 40.883-8.533 59.733l512.002 682.667c14.135 18.851 40.879 22.672 59.733 8.533zM256 576c-70.692 0-128 57.308-128 128s57.308 128 128 128c70.692 0 128-57.308 128-128s-57.308-128-128-128zM768 64c-70.694 0-128 57.306-128 128s57.306 128 128 128c70.694 0 128-57.306 128-128s-57.306-128-128-128z" />
<glyph unicode="&#xe934;" glyph-name="delete-left" d="M281.598 738.133c24.174 32.231 62.111 51.2 102.4 51.2h426.668c70.69 0 128-57.308 128-128v-426.667c0-70.694-57.31-128-128-128h-426.668c-40.289 0-78.227 18.97-102.4 51.2l-179.198 238.933c-22.755 30.34-22.755 72.060 0 102.4l179.198 238.933zM499.503 563.503c-16.666 16.662-43.678 16.662-60.343 0-16.66-16.663-16.66-43.678 0-60.34l55.164-55.164-55.164-55.164c-16.66-16.661-16.66-43.678 0-60.339 16.666-16.661 43.678-16.661 60.343 0l55.164 55.164 55.159-55.164c16.666-16.661 43.678-16.661 60.343 0 16.661 16.661 16.661 43.678 0 60.339l-55.164 55.164 55.164 55.164c16.661 16.661 16.661 43.677 0 60.34-16.666 16.662-43.678 16.662-60.343 0l-55.159-55.164-55.164 55.164z" />
<glyph unicode="&#xe935;" glyph-name="cup-to-go" d="M234.481 533.333h554.622c12.51 0 22.332-10.714 21.252-23.177l-35.601-410.859c-3.823-44.105-40.742-77.965-85.013-77.965h-355.55c-44.245 0-81.152 33.818-85.008 77.897l-35.953 410.91c-1.091 12.467 8.736 23.194 21.252 23.194zM511.996 192c47.13 0 85.333 38.204 85.333 85.333s-38.204 85.333-85.333 85.333c-47.125 0-85.332-38.204-85.332-85.333s38.206-85.333 85.332-85.333zM360.172 874.667c-36.73 0-69.339-23.503-80.954-58.348l-23.217-69.652h-42.667c-23.564 0-42.667-19.103-42.667-42.667v-42.667c0-23.564 19.103-42.667 42.667-42.667h597.333c23.565 0 42.667 19.103 42.667 42.667v42.667c0 23.564-19.102 42.667-42.667 42.667h-42.667l-23.219 69.652c-11.614 34.845-44.224 58.348-80.951 58.348h-303.658z" />
<glyph unicode="&#xe936;" glyph-name="compass" d="M512 405.333c23.565 0 42.667 19.102 42.667 42.667s-19.102 42.667-42.667 42.667c-23.565 0-42.667-19.102-42.667-42.667s19.102-42.667 42.667-42.667zM938.667 448c0-235.639-191.027-426.667-426.667-426.667-235.642 0-426.667 191.027-426.667 426.667 0 235.642 191.025 426.667 426.667 426.667 235.639 0 426.667-191.025 426.667-426.667zM656.107 618.018l-226.091-57.116c-15.204-3.841-27.076-15.713-30.917-30.918l-57.114-226.091c-3.956-15.663 10.249-29.867 25.908-25.911l226.091 57.118c15.206 3.84 27.076 15.71 30.921 30.916l57.114 226.093c3.955 15.66-10.249 29.865-25.911 25.908z" />
<glyph unicode="&#xe937;" glyph-name="closelight" d="M195.197 764.8c12.002 11.998 28.278 18.738 45.248 18.738s33.246-6.74 45.248-18.738l226.303-226.304 226.304 226.304c12.070 11.658 28.237 18.109 45.018 17.963s32.832-6.877 44.698-18.743c11.87-11.866 18.598-27.918 18.743-44.698s-6.302-32.947-17.963-45.018l-226.304-226.304 226.304-226.304c11.661-12.070 18.108-28.237 17.963-45.018s-6.874-32.832-18.743-44.698c-11.866-11.87-27.917-18.598-44.698-18.743s-32.947 6.306-45.018 17.963l-226.304 226.304-226.303-226.304c-12.070-11.657-28.237-18.108-45.018-17.963s-32.832 6.874-44.699 18.743c-11.866 11.866-18.597 27.917-18.743 44.698s6.305 32.947 17.963 45.018l226.304 226.304-226.304 226.304c-11.998 12.002-18.738 28.277-18.738 45.248s6.74 33.246 18.738 45.248z" />
<glyph unicode="&#xe938;" glyph-name="city" d="M938.667 106.667h-42.667v725.333c0 46.933-38.4 85.333-85.333 85.333h-426.667c-46.933 0-85.333-38.4-85.333-85.333v-384h-85.333c-46.933 0-85.333-38.4-85.333-85.333v-256h-42.667c-25.6 0-42.667-17.067-42.667-42.667s17.067-42.667 42.667-42.667h853.333c25.6 0 42.667 17.067 42.667 42.667s-17.067 42.667-42.667 42.667zM298.667 192h-85.333v85.333h85.333v-85.333zM554.667 512h-85.333v85.333h85.333v-85.333zM554.667 661.333h-85.333v85.333h85.333v-85.333zM725.333 213.333h-85.333v85.333h85.333v-85.333zM725.333 362.667h-85.333v85.333h85.333v-85.333zM725.333 512h-85.333v85.333h85.333v-85.333zM725.333 661.333h-85.333v85.333h85.333v-85.333z" />
<glyph unicode="&#xe939;" glyph-name="children" d="M304.063 789.333c23.215 0 45.478-9.552 61.893-26.556s25.637-40.064 25.637-64.111c0-24.047-9.222-47.108-25.637-64.111s-38.678-26.556-61.893-26.556c-23.214 0-45.478 9.552-61.892 26.556s-25.637 40.064-25.637 64.111c0 24.047 9.222 47.108 25.637 64.111s38.678 26.556 61.892 26.556zM205.593 109.333v113.335h-24.344c-14.907 0-25.438 15.155-20.788 29.888l42.534 132.318-39.115-53.551c-14.634-19.972-42.123-23.799-61.27-8.781-19.147 15.014-22.976 43.49-8.48 63.467l80.554 110.076c30.636 41.932 78.639 66.581 129.379 66.581s98.744-24.65 129.379-66.581l80.555-110.076c14.635-19.977 10.803-48.452-8.478-63.467-19.285-15.019-46.775-11.191-61.274 8.781l-39.113 53.551 42.535-132.318c4.787-14.733-5.884-29.888-20.791-29.888h-24.342v-113.335c0-25.075-19.557-45.333-43.764-45.333s-43.764 20.258-43.764 45.333v113.335h-21.882v-113.335c0-25.075-19.557-45.333-43.764-45.333s-43.764 20.258-43.764 45.333zM741.709 789.333c23.215 0 45.478-9.552 61.892-26.556s25.638-40.064 25.638-64.111c0-24.047-9.225-47.108-25.638-64.111s-38.677-26.556-61.892-26.556c-23.215 0-45.478 9.552-61.892 26.556s-25.638 40.064-25.638 64.111c0 24.047 9.225 47.108 25.638 64.111s38.677 26.556 61.892 26.556zM730.769 245.333v-136c0-25.075-19.558-45.333-43.767-45.333-24.205 0-43.763 20.258-43.763 45.333v254.293l-17.643-29.043c-12.855-21.248-39.936-27.482-60.314-14.165s-26.53 41.365-13.675 62.473l70.707 116.309c24.068 39.525 66.057 63.608 111.053 63.608h16.819c45.133 0 87.121-23.942 111.053-63.608l70.707-116.45c12.855-21.248 6.703-49.156-13.675-62.477-20.378-13.316-47.458-6.942-60.314 14.17l-17.779 29.184v-254.293c0-25.075-19.558-45.333-43.763-45.333-24.209 0-43.767 20.258-43.767 45.333v136h-21.879z" />
<glyph unicode="&#xe93a;" glyph-name="check" d="M85.333 448c0 235.642 191.025 426.667 426.667 426.667 235.639 0 426.667-191.025 426.667-426.667 0-235.639-191.027-426.667-426.667-426.667-235.642 0-426.667 191.027-426.667 426.667zM670.17 503.164c16.661 16.661 16.661 43.677 0 60.34s-43.678 16.662-60.339 0l-140.497-140.497-55.163 55.164c-16.663 16.661-43.677 16.661-60.34 0s-16.662-43.678 0-60.339l85.334-85.333c16.661-16.661 43.678-16.661 60.339 0l170.667 170.667z" />
<glyph unicode="&#xe93b;" glyph-name="chat" d="M128 222.946v335.987c0 95.582 0 143.373 18.601 179.881 16.363 32.113 42.471 58.222 74.584 74.584 36.508 18.601 84.299 18.601 179.881 18.601h221.867c95.582 0 143.373 0 179.883-18.601 32.111-16.363 58.219-42.471 74.581-74.584 18.603-36.508 18.603-84.299 18.603-179.881v-51.2c0-95.582 0-143.373-18.603-179.883-16.363-32.111-42.47-58.219-74.581-74.581-36.51-18.603-84.301-18.603-179.883-18.603h-180.941c-21.388 0-32.080 0-42.114-2.466-8.895-2.185-17.379-5.79-25.129-10.671-8.742-5.513-16.166-13.205-31.015-28.595l-39.642-41.088c-55.043-57.050-82.564-85.577-106.272-87.74-20.563-1.877-40.768 6.281-54.263 21.909-15.558 18.018-15.558 57.655-15.558 136.93z" />
<glyph unicode="&#xe93c;" glyph-name="calendar" d="M384 789.333v-42.667h256v42.667c0 23.564 19.102 42.667 42.667 42.667s42.667-19.103 42.667-42.667v-42.668c19.584-0.012 36.663-0.133 50.987-1.303 16.87-1.378 33.647-4.421 49.792-12.647 24.085-12.272 43.665-31.853 55.936-55.938 8.226-16.144 11.268-32.922 12.646-49.789 0.725-8.85 1.045-18.749 1.19-29.641 0.154-11.786-9.446-21.347-21.231-21.347h-725.306c-11.787 0-21.388 9.561-21.232 21.347 0.144 10.892 0.466 20.791 1.189 29.641 1.378 16.868 4.421 33.645 12.647 49.789 12.272 24.085 31.854 43.666 55.938 55.938 16.144 8.226 32.922 11.269 49.79 12.647 14.326 1.17 31.402 1.291 50.988 1.303v42.668c0 23.564 19.103 42.667 42.667 42.667s42.667-19.103 42.667-42.667zM896 469.333v-227.78c0-22.49 0-41.894-1.306-57.873-1.378-16.87-4.42-33.647-12.646-49.792-12.271-24.085-31.851-43.665-55.936-55.936-16.145-8.226-32.922-11.268-49.792-12.646-15.979-1.306-35.379-1.306-57.869-1.306h-412.896c-22.489 0-41.897 0-57.876 1.306-16.868 1.378-33.646 4.42-49.79 12.646-24.084 12.271-43.666 31.851-55.938 55.936-8.226 16.145-11.269 32.922-12.647 49.792-1.306 15.979-1.305 35.383-1.304 57.873v227.78c0 11.78 9.551 21.333 21.333 21.333h725.333c11.78 0 21.333-9.553 21.333-21.333z" />
<glyph unicode="&#xe93d;" glyph-name="calendar-check" d="M435.627 106.667h-264.96v426.667h597.333v-186.88l85.333 85.333v272.213c0 46.933-38.4 85.333-85.333 85.333h-42.667v85.333h-85.333v-85.333h-341.333v85.333h-85.333v-85.333h-42.667c-47.36 0-84.907-38.4-84.907-85.333l-0.427-597.333c0-22.63 8.99-44.335 24.994-60.339s37.708-24.994 60.34-24.994h350.293l-85.333 85.333zM663.040 0l-151.040 151.040 60.16 60.16 90.453-90.453 180.907 180.907 60.16-60.16-240.64-241.493zM401.493 362.667l67.84-67.84-60.16-60.16-67.84 67.84-67.84-67.84-60.16 60.16 67.84 67.84-67.84 67.84 60.16 60.16 67.84-67.84 67.84 67.84 60.16-60.16-67.84-67.84z" />
<glyph unicode="&#xe93e;" glyph-name="bed" d="M864 498.598c-20.173 8.858-41.967 13.419-64 13.402h-576c-22.030 0.021-43.824-4.535-64-13.38-28.516-12.471-52.781-32.977-69.83-59.017s-26.143-56.478-26.17-87.603v-224c0-8.486 3.372-16.627 9.373-22.626 6.001-6.003 14.141-9.374 22.627-9.374s16.626 3.371 22.627 9.374c6.001 5.999 9.373 14.14 9.373 22.626v16c0.052 4.228 1.754 8.269 4.744 11.255 2.989 2.991 7.029 4.693 11.256 4.745h736c4.228-0.051 8.269-1.754 11.255-4.745 2.991-2.987 4.693-7.027 4.745-11.255v-16c0-8.486 3.371-16.627 9.374-22.626 5.999-6.003 14.14-9.374 22.626-9.374s16.627 3.371 22.626 9.374c6.003 5.999 9.374 14.14 9.374 22.626v224c-0.030 31.121-9.126 61.555-26.176 87.59s-41.31 46.541-69.824 59.008zM752 800h-480c-29.704 0-58.192-11.8-79.196-32.804s-32.804-49.492-32.804-79.196v-144c0.001-1.24 0.29-2.462 0.844-3.571s1.359-2.074 2.35-2.819c0.991-0.745 2.141-1.249 3.361-1.473s2.474-0.161 3.665 0.183c17.469 5.109 35.579 7.695 53.78 7.68h8.46c1.975-0.012 3.884 0.706 5.361 2.016s2.417 3.121 2.639 5.084c1.745 15.636 9.189 30.081 20.91 40.577s26.897 16.307 42.63 16.323h112c15.744-0.001 30.933-5.805 42.667-16.303s19.187-24.951 20.932-40.597c0.222-1.962 1.165-3.773 2.641-5.084s3.383-2.029 5.359-2.016h48.922c1.975-0.012 3.883 0.706 5.359 2.016 1.481 1.311 2.419 3.121 2.641 5.084 1.745 15.626 9.178 30.063 20.885 40.557s26.871 16.312 42.594 16.343h112c15.744-0.001 30.933-5.805 42.667-16.303s19.187-24.951 20.932-40.597c0.222-1.962 1.165-3.773 2.641-5.084s3.383-2.029 5.359-2.016h8.401c18.202 0.009 36.314-2.584 53.781-7.7 1.19-0.344 2.449-0.407 3.669-0.182s2.372 0.731 3.362 1.478c0.994 0.747 1.796 1.715 2.351 2.826 0.55 1.111 0.841 2.336 0.836 3.578v144c0 29.704-11.802 58.192-32.802 79.196-21.005 21.004-49.493 32.804-79.198 32.804z" />
<glyph unicode="&#xe93f;" glyph-name="bike" d="M362.667 512l-25.6 34.133c-5.814-4.365-10.416-10.144-13.369-16.785-2.953-6.643-4.16-13.931-3.506-21.171s3.147-14.195 7.243-20.203c4.096-6.007 9.659-10.867 16.16-14.118l19.072 38.144zM533.333 426.667l42.24-6.016c1.259 8.862-0.303 17.89-4.459 25.818-4.16 7.923-10.705 14.34-18.709 18.342l-19.072-38.144zM469.76 283.349c-0.815-5.559-0.529-11.226 0.853-16.67 1.378-5.449 3.819-10.569 7.181-15.070 3.366-4.501 7.582-8.294 12.416-11.162 4.834-2.863 10.185-4.749 15.748-5.538 5.564-0.794 11.226-0.478 16.666 0.922 5.444 1.404 10.551 3.87 15.040 7.253 4.484 3.379 8.26 7.616 11.102 12.463 2.846 4.843 4.706 10.202 5.474 15.77l-84.48 12.032zM533.333 640l30.165 30.165c-7.262 7.262-16.9 11.661-27.14 12.39-10.244 0.729-20.407-2.261-28.625-8.422l25.6-34.133zM640 533.333l-30.165-30.165c8-8 18.85-12.497 30.165-12.501v42.667zM725.333 490.667c11.315 0 22.17 4.497 30.17 12.497s12.497 18.854 12.497 30.17c0 11.316-4.497 22.168-12.497 30.17s-18.854 12.497-30.17 12.497v-85.333zM341.333 277.333c0-22.63-8.99-44.335-24.994-60.339s-37.708-24.994-60.34-24.994v-85.333c45.264 0 88.673 17.98 120.68 49.988 32.006 32.004 49.987 75.413 49.987 120.678h-85.333zM256 192c-22.632 0-44.337 8.99-60.34 24.994s-24.994 37.709-24.994 60.339h-85.333c0-45.265 17.981-88.674 49.987-120.678 32.006-32.009 75.416-49.988 120.68-49.988v85.333zM170.667 277.333c0 22.63 8.99 44.335 24.994 60.339s37.708 24.994 60.34 24.994v85.333c-45.264 0-88.673-17.98-120.68-49.988-32.006-32.004-49.987-75.413-49.987-120.678h85.333zM256 362.667c22.632 0 44.337-8.99 60.34-24.994s24.994-37.709 24.994-60.339h85.333c0 45.265-17.981 88.674-49.987 120.678-32.006 32.009-75.416 49.988-120.68 49.988v-85.333zM343.595 473.856l170.667-85.333 38.144 76.288-170.667 85.333-38.144-76.288zM491.093 432.683l-21.333-149.333 84.48-12.032 21.333 149.333-84.48 12.032zM388.267 477.867l170.667 128-51.2 68.267-170.667-128 51.2-68.267zM503.168 609.835l106.667-106.667 60.331 60.331-106.667 106.667-60.331-60.331zM640 490.667h85.333v85.333h-85.333v-85.333zM853.333 277.333c0-22.63-8.99-44.335-24.994-60.339s-37.709-24.994-60.339-24.994v-85.333c45.265 0 88.674 17.98 120.678 49.988 32.009 32.004 49.988 75.413 49.988 120.678h-85.333zM768 192c-22.63 0-44.335 8.99-60.339 24.994s-24.994 37.709-24.994 60.339h-85.333c0-45.265 17.98-88.674 49.988-120.678 32.004-32.009 75.413-49.988 120.678-49.988v85.333zM682.667 277.333c0 22.63 8.99 44.335 24.994 60.339s37.709 24.994 60.339 24.994v85.333c-45.265 0-88.674-17.98-120.678-49.988-32.009-32.004-49.988-75.413-49.988-120.678h85.333zM768 362.667c22.63 0 44.335-8.99 60.339-24.994s24.994-37.709 24.994-60.339h85.333c0 45.265-17.98 88.674-49.988 120.678-32.004 32.009-75.413 49.988-120.678 49.988v-85.333zM640 746.667v-85.333c22.63 0 44.335 8.99 60.339 24.994s24.994 37.708 24.994 60.34h-85.333zM640 746.667h-85.333c0-22.632 8.99-44.337 24.994-60.34s37.709-24.994 60.339-24.994v85.333zM640 746.667v85.333c-22.63 0-44.335-8.99-60.339-24.994s-24.994-37.708-24.994-60.34h85.333zM640 746.667h85.333c0 22.632-8.99 44.337-24.994 60.34s-37.709 24.994-60.339 24.994v-85.333z" />
<glyph unicode="&#xe940;" glyph-name="bill" d="M170.667 669.867c0 71.687 0 107.53 13.951 134.911 12.272 24.085 31.853 43.666 55.938 55.938 27.38 13.951 63.224 13.951 134.911 13.951h145.067c11.947 0 17.92 0 22.485-2.325 4.015-2.045 7.279-5.309 9.323-9.323 2.325-4.564 2.325-10.537 2.325-22.485v-93.867c0-94.257 76.412-170.667 170.667-170.667h93.867c11.947 0 17.92 0 22.485-2.325 4.015-2.045 7.279-5.309 9.323-9.323 2.325-4.564 2.325-10.537 2.325-22.485v-315.733c0-71.689 0-107.529-13.952-134.912-12.271-24.085-31.851-43.665-55.936-55.936-27.383-13.952-63.223-13.952-134.912-13.952h-273.067c-71.687 0-107.53 0-134.911 13.952-24.085 12.271-43.666 31.851-55.938 55.936-13.951 27.383-13.951 63.223-13.951 134.912v443.733zM426.667 405.333c-23.564 0-42.667-19.102-42.667-42.667s19.103-42.667 42.667-42.667h170.667c23.565 0 42.667 19.102 42.667 42.667s-19.102 42.667-42.667 42.667h-170.667zM640 844.497c0 16.663 13.508 30.17 30.17 30.17 8 0 15.676-3.179 21.333-8.837l152.994-152.993c5.658-5.658 8.836-13.332 8.836-21.333 0-16.663-13.508-30.17-30.17-30.17h-97.83c-47.13 0-85.333 38.205-85.333 85.333v97.83z" />
<glyph unicode="&#xe941;" glyph-name="blog" d="M810.667 832c22.63 0 44.335-8.99 60.339-24.994s24.994-37.708 24.994-60.34v-597.333c0-22.63-8.99-44.335-24.994-60.339s-37.709-24.994-60.339-24.994h-597.333c-22.632 0-44.337 8.99-60.34 24.994s-24.994 37.709-24.994 60.339v597.333c0 22.632 8.99 44.337 24.994 60.34s37.708 24.994 60.34 24.994h597.333zM664.747 234.667l-40.533 174.080 134.827 116.48-177.92 15.36-69.12 163.413-69.12-163.84-177.92-15.36 134.827-116.48-40.533-173.653 152.747 92.16 152.747-92.16z" />
<glyph unicode="&#xe942;" glyph-name="beach" d="M762.496 860.416c-61.269 35.222-133.995 44.762-202.274 26.534-68.284-18.228-126.575-62.741-162.142-123.814l-9.728-16.832c-2.111-3.642-3.483-7.665-4.037-11.837s-0.279-8.414 0.809-12.481c1.088-4.067 2.968-7.878 5.531-11.217s5.761-6.139 9.408-8.241l169.472-97.408-104.256-182.208c-92.8-12.096-171.52-72.32-221.44-153.216 23.245 5.227 47.602 1.621 68.337-10.112s36.367-30.758 43.855-53.376c1.964-7.36 6.278-13.879 12.288-18.56 4.402-3.106 9.653-4.783 15.040-4.8 5.188-0.094 10.28 1.404 14.592 4.288 5.307 3.904 9.159 9.468 10.944 15.808 6.501 18.906 18.743 35.315 35.021 46.929 16.273 11.614 35.767 17.856 55.765 17.856 19.994 0 39.488-6.242 55.761-17.856 16.277-11.614 28.518-28.023 35.021-46.929 3.2-9.152 7.552-13.504 10.944-15.808 3.968-2.688 8.96-4.288 14.656-4.224 5.359 0.013 10.586 1.664 14.976 4.736 6.012 4.681 10.325 11.2 12.288 18.56 7.488 22.618 23.121 41.643 43.853 53.376 20.736 11.733 45.094 15.339 68.339 10.112-49.024 79.616-126.016 139.136-216.896 152.576l86.336 151.040 181.76-104.448c7.33-4.207 16.030-5.346 24.192-3.162 8.166 2.18 15.138 7.505 19.392 14.81l9.792 16.896c17.527 30.221 28.907 63.61 33.485 98.245 4.574 34.636 2.257 69.834-6.818 103.571s-24.734 65.346-46.071 93.009c-21.338 27.663-47.868 50.835-78.195 68.182zM295.296 186.048c-2.187 6.583-6.455 12.279-12.161 16.23-5.706 3.947-12.541 5.931-19.474 5.658s-13.589-2.795-18.965-7.181c-5.376-4.386-9.181-10.402-10.84-17.139-8-32.768-22.912-49.92-39.232-59.84-17.472-10.56-40.192-14.912-66.624-14.912-8.487 0-16.626-3.371-22.627-9.374-6.001-5.999-9.373-14.14-9.373-22.626s3.372-16.627 9.373-22.626c6.001-6.003 14.141-9.374 22.627-9.374 32.256 0 68.224 5.12 99.712 24.128 15.616 9.472 29.376 21.824 40.704 37.44 61.504-69.12 171.52-68.736 231.36 1.216 60.864-71.232 173.824-70.4 234.624 2.56 16.661-20.279 37.577-36.642 61.269-47.936 23.689-11.294 49.574-17.237 75.819-17.408 8.486 0 16.627 3.371 22.626 9.374 6.003 5.999 9.374 14.14 9.374 22.626s-3.371 16.627-9.374 22.626c-5.999 6.003-14.14 9.374-22.626 9.374-45.824 0-91.456 29.952-106.496 76.864-2.069 6.413-6.114 12.011-11.55 15.991-5.44 3.981-11.994 6.14-18.735 6.178-6.737 0.034-13.316-2.057-18.795-5.982-5.483-3.925-9.583-9.476-11.721-15.868-29.76-89.664-145.28-88.128-174.208-3.84-2.176 6.289-6.259 11.742-11.678 15.599-5.419 3.861-11.908 5.935-18.564 5.935-6.652 0-13.141-2.074-18.56-5.935-5.419-3.857-9.502-9.31-11.678-15.599-28.992-84.288-144.512-85.824-174.208 3.84z" />
<glyph unicode="&#xe943;" glyph-name="bank-card" d="M119.777 618.667h784.445c12.083 0 18.121 0 22.784 2.452 4.006 2.106 7.428 5.681 9.361 9.774 2.249 4.763 2.001 10.557 1.502 22.145-1.276 29.565-4.582 49.583-13.154 66.407-12.271 24.085-31.851 43.666-55.936 55.938-27.383 13.951-63.223 13.951-134.912 13.951h-443.733c-71.687 0-107.53 0-134.911-13.951-24.085-12.272-43.666-31.853-55.938-55.938-8.572-16.823-11.877-36.842-13.152-66.407-0.499-11.587-0.749-17.382 1.5-22.145 1.932-4.092 5.356-7.667 9.361-9.774 4.662-2.452 10.703-2.452 22.783-2.452zM85.333 499.2c0 11.947 0 17.92 2.325 22.485 2.045 4.015 5.309 7.279 9.323 9.323 4.564 2.325 10.537 2.325 22.485 2.325h785.067c11.947 0 17.92 0 22.485-2.325 4.015-2.044 7.279-5.308 9.323-9.323 2.325-4.565 2.325-10.539 2.325-22.485v-187.733c0-71.689 0-107.529-13.952-134.912-12.271-24.085-31.851-43.665-55.936-55.936-27.383-13.952-63.223-13.952-134.912-13.952h-443.733c-71.687 0-107.53 0-134.911 13.952-24.085 12.271-43.666 31.851-55.938 55.936-13.951 27.383-13.951 63.223-13.951 134.912v187.733zM298.667 362.667c-23.564 0-42.667-19.102-42.667-42.667s19.103-42.667 42.667-42.667h170.667c23.565 0 42.667 19.102 42.667 42.667s-19.102 42.667-42.667 42.667h-170.667z" />
<glyph unicode="&#xe944;" glyph-name="badge-discount" d="M564.019 848.727l58.624-77.317c9.318-12.286 24.538-18.59 39.812-16.49l96.124 13.217c42.833 5.889 79.454-30.732 73.566-73.563l-13.218-96.126c-2.099-15.275 4.203-30.494 16.491-39.81l77.316-58.627c34.449-26.121 34.449-77.909 0-104.034l-77.316-58.624c-12.288-9.314-18.59-24.533-16.491-39.808l13.218-96.128c5.888-42.829-30.733-79.454-73.566-73.562l-96.124 13.214c-15.275 2.103-30.494-4.203-39.812-16.486l-58.624-77.321c-26.121-34.449-77.914-34.449-104.034 0l-58.626 77.321c-9.315 12.284-24.535 18.59-39.81 16.486l-96.126-13.214c-42.831-5.892-79.452 30.733-73.563 73.562l13.216 96.128c2.1 15.275-4.204 30.494-16.489 39.808l-77.317 58.624c-34.45 26.125-34.45 77.914 0 104.034l77.317 58.627c12.286 9.316 18.59 24.535 16.489 39.81l-13.216 96.126c-5.889 42.831 30.732 79.452 73.563 73.563l96.126-13.217c15.275-2.1 30.494 4.204 39.81 16.49l58.626 77.317c26.121 34.45 77.914 34.45 104.034 0zM627.499 563.503c-16.661 16.663-43.674 16.663-60.339 0l-170.665-170.667c-16.662-16.661-16.662-43.678 0-60.339s43.677-16.661 60.338 0l170.667 170.667c16.666 16.661 16.666 43.677 0 60.339zM426.664 490.667c23.563 0 42.665 19.102 42.665 42.667s-19.102 42.667-42.665 42.667c-23.564 0-42.667-19.103-42.667-42.667s19.103-42.667 42.667-42.667zM597.329 320c23.565 0 42.667 19.102 42.667 42.667s-19.102 42.667-42.667 42.667c-23.561 0-42.667-19.102-42.667-42.667s19.106-42.667 42.667-42.667z" />
<glyph unicode="&#xe945;" glyph-name="baby" d="M367.998 784c0 18.91 3.725 37.635 10.964 55.107s17.847 33.345 31.222 46.717c13.374 13.371 29.253 23.978 46.725 31.215 17.476 7.237 36.207 10.961 55.121 10.961s37.641-3.725 55.117-10.961c17.476-7.237 33.353-17.844 46.729-31.215 13.372-13.372 23.983-29.246 31.219-46.717 7.241-17.471 10.965-36.196 10.965-55.107s-3.725-37.635-10.965-55.107c-7.236-17.471-17.847-33.345-31.219-46.717-13.376-13.371-29.252-23.978-46.729-31.215s-36.203-10.961-55.117-10.961c-18.914 0-37.645 3.725-55.121 10.961-17.472 7.237-33.351 17.844-46.725 31.215s-23.984 29.246-31.222 46.717c-7.238 17.471-10.964 36.196-10.964 55.107zM143.351 671c26.006 35.8 76.016 43.6 111.824 17.6l72.415-52.6c53.612-39 118.226-60 184.44-60s130.825 21 184.439 60l72.414 52.8c35.806 26 85.82 18 111.825-17.6s18.001-85.8-17.604-111.8l-72.418-52.802c-27.204-19.797-56.209-36.399-86.618-49.997v-72.602h-384.080v72.602c-30.406 13.397-59.412 30.199-86.618 49.997l-72.415 52.802c-35.808 26-43.609 76-17.604 111.8v-0.2zM322.989 301.402l121.227-106.001-52.012-74.402 48.611-48.597c31.206-31.202 31.206-81.801 0-113.199-31.208-31.403-81.818-31.202-113.225 0l-96.020 96c-27.606 27.597-31.407 70.797-9.202 102.596l100.421 143.603h0.2zM580.045 195.401l121.225 106.001 100.42-143.603c22.204-31.799 18.402-74.999-9.003-102.4l-96.021-96c-31.206-31.198-81.813-31.198-113.22 0-31.407 31.202-31.206 81.801 0 113.203l48.61 48.597-52.011 74.402v-0.201z" />
<glyph unicode="&#xe946;" glyph-name="arrowline-down" d="M512 320c-12.8 0-21.333 4.267-29.867 12.8l-170.667 170.667c-17.067 17.067-17.067 42.667 0 59.733s42.667 17.067 59.733 0l140.8-140.8 140.8 140.8c17.067 17.067 42.667 17.067 59.733 0s17.067-42.667 0-59.733l-170.667-170.667c-8.533-8.533-17.067-12.8-29.867-12.8z" />
<glyph unicode="&#xe947;" glyph-name="arrowline-right" d="M426.667 234.667c-12.8 0-21.333 4.267-29.867 12.8-17.067 17.067-17.067 42.667 0 59.733l140.8 140.8-140.8 140.8c-17.067 17.067-17.067 42.667 0 59.733s42.667 17.067 59.733 0l170.667-170.667c17.067-17.067 17.067-42.667 0-59.733l-170.667-170.667c-8.533-8.533-17.067-12.8-29.867-12.8z" />
<glyph unicode="&#xe948;" glyph-name="arrowline-left" d="M597.333 234.667c-12.8 0-21.333 4.267-29.867 12.8l-170.667 170.667c-17.067 17.067-17.067 42.667 0 59.733l170.667 170.667c17.067 17.067 42.667 17.067 59.733 0s17.067-42.667 0-59.733l-140.8-140.8 140.8-140.8c17.067-17.067 17.067-42.667 0-59.733-8.533-8.533-17.067-12.8-29.867-12.8z" />
<glyph unicode="&#xe949;" glyph-name="arrowline-up" d="M682.667 320c-12.8 0-21.333 4.267-29.867 12.8l-140.8 140.8-140.8-140.8c-17.067-17.067-42.667-17.067-59.733 0s-17.067 42.667 0 59.733l170.667 170.667c17.067 17.067 42.667 17.067 59.733 0l170.667-170.667c17.067-17.067 17.067-42.667 0-59.733-8.533-8.533-17.067-12.8-29.867-12.8z" />
<glyph unicode="&#xe94a;" glyph-name="attractions" d="M248.532 21.333l57.6 130.133c-9.956 7.821-19.556 15.458-28.8 22.912s-18.133 15.458-26.667 24.021c-5.689-2.133-11.207-3.742-16.555-4.821s-11.207-1.609-17.579-1.579c-23.467 0-43.563 8.363-60.288 25.088s-25.074 36.809-25.045 60.245c0 14.221 3.029 27.209 9.088 38.955s14.407 21.517 25.045 29.312c-5.689 16.354-9.6 32.896-11.733 49.621s-3.2 34.317-3.2 52.779c0 18.487 1.067 36.096 3.2 52.821s6.044 33.251 11.733 49.579c-10.667 7.822-19.029 17.607-25.088 29.355s-9.074 24.718-9.045 38.912c0 23.467 8.363 43.563 25.088 60.288s36.807 25.074 60.245 25.045c6.4 0 12.273-0.541 17.621-1.621s10.851-2.674 16.512-4.779c23.467 25.6 50.318 46.933 80.555 64s62.407 29.867 96.514 38.4c3.554 21.333 13.338 39.111 29.355 53.333 16.013 14.222 34.671 21.333 55.979 21.333 21.333 0 40.004-7.296 56.021-21.888 16.013-14.592 25.783-32.185 29.312-52.779 34.133-8.533 66.317-21.163 96.555-37.888 30.234-16.725 57.071-37.518 80.512-62.379 5.687 2.133 11.021 3.726 16 4.779 4.975 1.053 10.308 1.593 16 1.621 23.467 0 43.563-8.363 60.288-25.088s25.071-36.807 25.045-60.245c0-14.222-2.846-26.851-8.533-37.888-5.692-11.037-13.513-20.451-23.467-28.245 5.687-17.067 9.6-34.487 11.733-52.267s3.2-35.913 3.2-54.4c0-18.487-1.067-36.45-3.2-53.888s-6.046-34.317-11.733-50.645c9.954-7.821 17.775-17.25 23.467-28.288 5.687-11.038 8.533-23.65 8.533-37.845 0-23.467-8.363-43.563-25.088-60.288s-36.796-25.075-60.203-25.045c-5.692 0-11.025 0.542-16 1.621-4.979 1.079-10.313 2.675-16 4.779-8.533-8.533-17.254-16.883-26.155-25.045-8.905-8.162-18.675-16.171-29.312-24.021l55.467-128h-78.933l-40.533 93.867c-9.958-4.267-19.558-8.009-28.8-11.221-9.246-3.213-18.846-5.875-28.8-7.979-3.558-20.621-13.342-38.229-29.355-52.821-16.017-14.592-34.688-21.875-56.021-21.845-21.333 0-40.009 7.113-56.021 21.333-16.017 14.221-25.788 32-29.312 53.333-10.668 2.133-20.809 4.809-30.423 8.021s-19.385 6.942-29.312 11.179l-40.533-93.867h-78.933zM329.598 206.933l66.133 149.333c-9.956 12.8-17.778 27.021-23.467 42.667s-8.533 32-8.533 49.067c0 40.533 14.763 75.563 44.288 105.088 29.527 29.525 64.527 44.274 105.004 44.245 40.533 0 75.563-14.763 105.088-44.288s44.271-64.542 44.245-105.045c0-17.067-3.029-33.779-9.088-50.133s-14.409-30.933-25.045-43.733l66.133-147.2c6.4 5.687 12.629 10.837 18.688 15.445s11.917 10.125 17.579 16.555c-3.558 5.687-5.875 11.904-6.955 18.645-1.084 6.741-1.596 13.325-1.536 19.755 0 22.754 7.821 42.313 23.467 58.667 15.642 16.354 34.842 25.246 57.6 26.667 4.267 14.221 7.467 28.275 9.6 42.155s3.2 28.275 3.2 43.179c0 14.933-1.067 29.696-3.2 44.288s-5.333 28.983-9.6 43.179c-22.758 1.422-41.958 10.311-57.6 26.667-15.646 16.355-23.467 35.911-23.467 58.667 0 6.4 0.896 12.615 2.688 18.645s3.738 11.904 5.845 17.621c-20.625 20.622-43.379 38.045-68.267 52.267-24.892 14.222-51.2 25.245-78.933 33.067-7.825-12.089-17.779-21.518-29.867-28.288-12.092-6.77-25.6-10.141-40.533-10.112-14.933 0-28.446 3.385-40.533 10.155-12.092 6.77-22.046 16.185-29.867 28.245-29.158-7.822-56.18-19.029-81.068-33.621s-47.645-32.541-68.267-53.845c2.133-5.689 4.096-11.563 5.888-17.621s2.673-12.274 2.645-18.645c0-22.755-7.467-42.141-22.4-58.155s-33.778-25.074-56.533-27.179c-4.267-14.221-7.467-28.275-9.6-42.155s-3.2-28.275-3.2-43.179c0-14.933 1.067-29.325 3.2-43.179s5.333-27.904 9.6-42.155c22.755-1.421 41.6-10.313 56.533-26.667s22.4-35.913 22.4-58.667c0-6.4-0.527-12.629-1.579-18.688s-3.371-11.917-6.955-17.579c5.689-6.4 11.563-12.275 17.621-17.621s12.273-10.85 18.645-16.512zM393.598 170.667c7.822-3.554 15.829-6.754 24.021-9.6s16.539-5.333 25.047-7.467c7.821 12.087 17.775 21.504 29.867 28.245 12.087 6.741 25.6 10.125 40.533 10.155 14.933 0 28.442-3.383 40.533-10.155 12.087-6.771 22.042-16.183 29.867-28.245 8.533 2.133 16.525 4.621 23.979 7.467 7.45 2.846 15.104 6.046 22.955 9.6l-61.867 138.667c-8.533-3.554-17.425-6.229-26.667-8.021-9.246-1.792-18.846-2.675-28.8-2.645-10.667 0-20.809 1.067-30.421 3.2-9.617 2.133-18.675 5.333-27.179 9.6l-61.868-140.8z" />
<glyph unicode="&#xe94b;" glyph-name="baby-bold" d="M368 384c-12.658 0-25.032 3.755-35.556 10.786s-18.728 17.028-23.572 28.723c-4.844 11.695-6.112 24.563-3.642 36.975 2.469 12.416 8.565 23.821 17.515 32.772 8.951 8.947 20.355 15.044 32.769 17.515s25.283 1.203 36.977-3.644c11.695-4.843 21.69-13.047 28.722-23.569 7.031-10.526 10.786-22.899 10.786-35.558 0-16.973-6.743-33.254-18.745-45.257s-28.281-18.743-45.255-18.743zM656 512c-12.659 0-25.033-3.755-35.558-10.786-10.522-7.031-18.726-17.028-23.569-28.723s-6.114-24.563-3.644-36.975c2.47-12.416 8.567-23.821 17.515-32.772 8.951-8.947 20.356-15.044 32.772-17.515 12.412-2.47 25.28-1.203 36.975 3.644 11.695 4.843 21.692 13.047 28.723 23.569 7.031 10.526 10.786 22.899 10.786 35.558 0 16.973-6.741 33.254-18.743 45.257s-28.284 18.743-45.257 18.743zM598.4 312.602c-25.95-16.085-55.872-24.606-86.4-24.606s-60.45 8.521-86.4 24.606c-5.332 3.443-11.294 5.794-17.542 6.921s-12.656 0.998-18.855-0.367c-6.199-1.37-12.064-3.955-17.257-7.607-5.193-3.648-9.61-8.294-12.996-13.662-3.386-5.372-5.673-11.358-6.729-17.617-1.056-6.263-0.86-12.668 0.577-18.85 1.437-6.187 4.086-12.023 7.794-17.173 3.708-5.154 8.401-9.519 13.808-12.847 41.278-25.745 88.951-39.394 137.6-39.394s96.324 13.649 137.6 39.394c5.406 3.328 10.099 7.693 13.807 12.847 3.708 5.15 6.357 10.987 7.795 17.173 1.438 6.182 1.634 12.587 0.576 18.85-1.054 6.259-3.341 12.245-6.729 17.617-3.383 5.367-7.804 10.014-12.996 13.662-5.193 3.652-11.059 6.238-17.259 7.607-6.195 1.365-12.604 1.493-18.854 0.367-6.246-1.126-12.207-3.477-17.54-6.921zM944 448c0-85.44-25.335-168.964-72.806-240.004-47.467-71.044-114.935-126.413-193.873-159.113-78.938-32.695-165.798-41.25-249.6-24.585-83.799 16.67-160.774 57.813-221.19 118.229s-101.56 137.395-118.229 221.193c-16.669 83.802-8.113 170.661 24.583 249.599s88.068 146.407 159.11 193.876c71.042 47.469 154.565 72.805 240.006 72.805 114.534-0.127 224.341-45.682 305.331-126.67 80.986-80.988 126.541-190.796 126.669-305.33zM848 448c-0.115 84.971-32.384 166.752-90.317 228.909-57.937 62.158-137.25 100.088-222.003 106.171-37.239-56.36-39.561-108-39.68-111.32 0.034-4.244 1.749-8.301 4.77-11.279 3.025-2.978 7.108-4.633 11.349-4.601 4.245 0.032 8.303 1.748 11.281 4.771s4.634 7.105 4.599 11.349c0 12.73 5.056 24.94 14.059 33.941s21.21 14.059 33.941 14.059c12.732 0 24.939-5.057 33.941-14.059s14.059-21.211 14.059-33.941c0-29.704-11.802-58.192-32.802-79.196-21.005-21.004-49.493-32.804-79.198-32.804s-58.193 11.8-79.198 32.804c-21.002 21.004-32.802 49.492-32.802 79.196 0 2.6 0.4 44.76 22.080 99.68-60.303-16.749-114.729-50.008-157.145-96.028s-71.136-102.972-82.922-164.437c-11.787-61.466-6.172-125.001 16.212-183.45 22.384-58.445 60.646-109.478 110.476-147.345 49.83-37.871 109.245-61.069 171.552-66.982s125.022 5.692 181.086 33.51c56.064 27.814 103.245 70.737 136.226 123.93s50.449 114.534 50.436 177.122z" />
<glyph unicode="&#xe94c;" glyph-name="alarm" d="M128 405.333c0 212.077 171.923 384 384 384 212.079 0 384-171.923 384-384 0-212.079-171.921-384-384-384-212.077 0-384 171.921-384 384zM554.667 576c0 23.564-19.102 42.667-42.667 42.667s-42.667-19.103-42.667-42.667v-170.667c0-11.315 4.497-22.17 12.497-30.17l85.333-85.333c16.661-16.661 43.678-16.661 60.339 0s16.661 43.678 0 60.339l-72.836 72.836v152.994zM196.269 733.864c-18.851-14.138-45.595-10.318-59.733 8.533s-10.318 45.595 8.533 59.733l85.333 64c18.851 14.138 45.595 10.318 59.733-8.533s10.318-45.595-8.533-59.733l-85.333-64zM793.604 866.126c-18.854 14.138-45.598 10.318-59.733-8.533-14.14-18.851-10.321-45.595 8.533-59.733l85.333-64c18.85-14.138 45.594-10.318 59.733 8.533 14.135 18.851 10.317 45.595-8.533 59.733l-85.333 64z" />
<glyph unicode="&#xe94d;" glyph-name="change" d="M768 533.333c0 11.316-4.493 22.168-12.497 30.17-8 8.002-18.854 12.497-30.17 12.497h-494.506l98.133 97.707c8.034 8.034 12.548 18.931 12.548 30.293s-4.514 22.259-12.548 30.293c-8.035 8.034-18.931 12.548-30.293 12.548s-22.259-4.514-30.293-12.548l-170.667-170.667c-5.92-6-9.931-13.619-11.526-21.896s-0.702-16.841 2.566-24.611c3.201-7.791 8.637-14.46 15.622-19.17 6.985-4.706 15.208-7.241 23.631-7.283h597.332c11.315 0 22.17 4.497 30.17 12.497 8.004 8 12.497 18.854 12.497 30.17zM935.253 378.88c-3.2 7.791-8.636 14.46-15.62 19.17-6.985 4.706-15.211 7.241-23.633 7.283h-597.332c-11.316 0-22.168-4.497-30.17-12.497s-12.497-18.854-12.497-30.17c0-11.315 4.495-22.17 12.497-30.17s18.854-12.497 30.17-12.497h494.506l-98.133-97.707c-3.998-3.968-7.172-8.687-9.34-13.884-2.163-5.201-3.281-10.778-3.281-16.41s1.118-11.209 3.281-16.41c2.167-5.197 5.342-9.916 9.34-13.884 3.968-3.998 8.687-7.172 13.884-9.34 5.201-2.167 10.778-3.281 16.41-3.281s11.209 1.114 16.41 3.281c5.201 2.167 9.92 5.342 13.884 9.34l170.667 170.667c5.922 5.999 9.933 13.619 11.524 21.897 1.596 8.277 0.704 16.841-2.564 24.61z" />
<glyph unicode="&#xe94e;" glyph-name="Search" d="M695.467 264.533c17.067 17.067 42.667 17.067 59.733 0l128-128c17.067-17.067 17.067-42.667 0-59.733s-42.667-17.067-59.733 0l-128 128c-17.067 17.067-17.067 42.667 0 59.733zM426.667 183.467c-192 0-349.867 157.867-349.867 349.867s157.867 349.867 349.867 349.867 349.867-157.867 349.867-349.867-157.867-349.867-349.867-349.867zM426.667 780.8c-136.533 0-247.467-110.933-247.467-247.467s110.933-247.467 247.467-247.467c136.533 0 247.467 110.933 247.467 247.467s-110.933 247.467-247.467 247.467z" />
<glyph unicode="&#xe94f;" glyph-name="top" d="M768 618.667c0 25.6-17.067 42.667-42.667 42.667h-426.667c-25.6 0-42.667-17.067-42.667-42.667s17.067-42.667 42.667-42.667h426.667c25.6 0 42.667 17.067 42.667 42.667zM725.333 213.333c-8.533 0-21.333 4.267-29.867 12.8l-183.467 166.4-183.467-166.4c-17.067-17.067-42.667-12.8-59.733 4.267s-12.8 42.667 4.267 59.733l213.333 192c17.067 12.8 42.667 12.8 55.467 0l213.333-192c17.067-17.067 17.067-42.667 4.267-59.733-12.8-12.8-21.333-17.067-34.133-17.067z" />
<glyph unicode="&#xe950;" glyph-name="twitter" d="M597.697 515.305l311.071 364.215h-73.728l-270.029-316.232-215.779 316.232h-248.832l326.248-478.247-326.248-381.911h73.728l285.206 333.988 227.881-333.988h248.832l-338.35 495.944zM496.751 397.095l-296.081 426.515h113.234l521.197-750.918h-113.234l-225.116 324.403z" />
<glyph unicode="&#xe951;" glyph-name="tiktok" d="M700.064 702.573c-28 31.964-43.43 73.014-43.418 115.507h-126.566v-507.902c-0.979-27.488-12.583-53.522-32.371-72.622s-46.215-29.774-73.716-29.778c-58.164 0-106.497 47.514-106.497 106.496 0 70.451 67.994 123.29 138.036 101.581v129.434c-141.313 18.84-265.012-90.931-265.012-231.014 0-136.397 113.050-233.472 233.064-233.472 128.614 0 233.062 104.448 233.062 233.472v257.637c51.323-36.858 112.939-56.634 176.128-56.523v126.565c0 0-77.005-3.686-132.71 60.621z" />
<glyph unicode="&#xe952;" glyph-name="facebook" d="M927.801 459.919c0 226.1-183.501 409.601-409.6 409.601s-409.601-183.501-409.601-409.601c0-198.246 140.902-363.315 327.681-401.408v278.528h-81.921v122.88h81.921v102.401c0 79.053 64.307 143.36 143.36 143.36h102.4v-122.88h-81.92c-22.528 0-40.96-18.432-40.96-40.961v-81.92h122.88v-122.88h-122.88v-284.672c206.848 20.48 368.64 194.97 368.64 407.552z" />
<glyph unicode="&#xe953;" glyph-name="discord" d="M815.985 722.641c-54.477 25.395-113.459 43.827-174.899 54.477-0.541 0.017-1.077-0.084-1.569-0.296-0.496-0.212-0.938-0.531-1.298-0.933-7.373-13.517-15.974-31.13-21.709-44.646-65.167 9.83-131.441 9.83-196.608 0-5.734 13.926-14.337 31.13-22.119 44.646-0.41 0.819-1.638 1.229-2.867 1.229-61.44-10.65-120.013-29.082-174.899-54.477-0.41 0-0.819-0.41-1.229-0.819-111.411-166.707-142.131-328.909-126.976-489.472 0-0.819 0.41-1.638 1.229-2.048 73.728-54.067 144.589-86.835 214.63-108.544 1.229-0.41 2.458 0 2.867 0.819 16.384 22.528 31.13 46.285 43.827 71.27 0.819 1.638 0 3.277-1.638 3.686-23.347 9.011-45.466 19.661-67.174 31.949-1.638 0.819-1.638 3.277-0.41 4.506 4.506 3.277 9.011 6.963 13.517 10.24 0.819 0.819 2.048 0.819 2.867 0.41 140.903-64.307 292.865-64.307 432.129 0 0.819 0.41 2.048 0.41 2.867-0.41 4.506-3.686 9.011-6.963 13.517-10.65 1.638-1.229 1.638-3.686-0.41-4.506-21.299-12.698-43.827-22.938-67.174-31.949-1.638-0.41-2.048-2.458-1.638-3.686 13.107-24.986 27.853-48.742 43.827-71.27 1.229-0.41 2.458-0.819 3.686-0.41 70.451 21.709 141.312 54.477 215.040 108.544 0.819 0.41 1.229 1.229 1.229 2.048 18.022 185.549-29.901 346.522-126.976 489.472-0.41 0.41-0.819 0.819-1.638 0.819zM375.664 330.244c-42.188 0-77.414 38.912-77.414 86.835s34.406 86.835 77.414 86.835c43.418 0 77.825-39.322 77.415-86.835 0-47.923-34.406-86.835-77.415-86.835zM661.156 330.244c-42.189 0-77.414 38.912-77.414 86.835s34.406 86.835 77.414 86.835c43.418 0 77.824-39.322 77.414-86.835 0-47.923-33.997-86.835-77.414-86.835z" />
<glyph unicode="&#xe954;" glyph-name="instagram" d="M560.292 869.47c29.889 0.115 59.777-0.186 89.661-0.901l7.946-0.287c9.175-0.328 18.227-0.737 29.164-1.229 43.581-2.048 73.318-8.929 99.41-19.046 27.034-10.404 49.807-24.494 72.581-47.268 20.82-20.464 36.938-45.218 47.227-72.54 10.117-26.092 16.998-55.869 19.046-99.451 0.492-10.895 0.901-19.988 1.229-29.164l0.246-7.947c0.725-29.868 1.040-59.743 0.942-89.62l0.041-30.556v-53.658c0.098-29.893-0.213-59.781-0.942-89.661l-0.246-7.946c-0.328-9.175-0.737-18.227-1.229-29.164-2.048-43.581-9.011-73.318-19.087-99.41-10.256-27.353-26.374-52.126-47.227-72.581-20.484-20.82-45.249-36.938-72.581-47.227-26.092-10.117-55.828-16.998-99.41-19.046-10.936-0.492-19.988-0.901-29.164-1.229l-7.946-0.246c-29.884-0.729-59.773-1.044-89.661-0.942l-84.173-0.041c-29.893-0.102-59.781 0.213-89.663 0.942l-7.946 0.246c-9.723 0.352-19.445 0.762-29.164 1.229-43.581 2.048-73.318 9.011-99.451 19.087-27.333 10.265-52.091 26.386-72.54 47.227-20.847 20.468-36.978 45.236-47.268 72.581-10.117 26.092-16.998 55.828-19.046 99.41-0.456 9.72-0.866 19.44-1.229 29.164l-0.205 7.946c-0.755 29.88-1.096 59.769-1.024 89.661v84.214c-0.114 29.876 0.186 59.752 0.901 89.62l0.287 7.947c0.328 9.175 0.737 18.268 1.229 29.164 2.048 43.622 8.929 73.318 19.046 99.451 10.296 27.336 26.459 52.083 47.35 72.499 20.435 20.858 45.177 37.004 72.499 47.309 26.132 10.117 55.828 16.998 99.451 19.046l29.164 1.229 7.946 0.205c29.869 0.754 59.745 1.096 89.622 1.024l84.214-0.041zM518.185 664.67c-27.136 0.384-54.079-4.63-79.262-14.748-25.178-10.119-48.099-25.142-67.424-44.195s-34.67-41.758-45.144-66.795c-10.474-25.035-15.867-51.905-15.867-79.041 0-27.14 5.394-54.006 15.867-79.045 10.474-25.035 25.82-47.739 45.144-66.793 19.325-19.050 42.246-34.075 67.424-44.192 25.182-10.121 52.126-15.135 79.262-14.75 54.313 0 106.406 21.578 144.814 59.986 38.408 38.404 59.986 90.497 59.986 144.814s-21.578 106.408-59.986 144.815c-38.408 38.407-90.501 59.944-144.814 59.944zM518.185 582.749c16.323 0.301 32.539-2.654 47.71-8.692 15.167-6.038 28.979-15.038 40.628-26.476 11.653-11.436 20.906-25.076 27.226-40.133 6.32-15.053 9.576-31.212 9.576-47.538 0.004-16.327-3.248-32.489-9.56-47.542-6.312-15.057-15.565-28.705-27.21-40.145-11.649-11.436-25.457-20.443-40.624-26.485-15.167-6.046-31.384-9.003-47.706-8.708-32.592 0-63.844 12.947-86.893 35.992-23.042 23.044-35.989 54.297-35.989 86.888 0 32.588 12.946 63.844 35.989 86.888 23.048 23.045 54.301 35.991 86.893 35.991l-0.041-0.041zM733.225 726.11c-13.214-0.529-25.711-6.151-34.873-15.687s-14.279-22.248-14.279-35.472c0-13.225 5.116-25.936 14.279-35.473s21.66-15.158 34.873-15.686c13.578 0 26.599 5.394 36.205 14.996 9.601 9.602 14.995 22.625 14.995 36.204s-5.394 26.602-14.995 36.204c-9.605 9.602-22.626 14.996-36.205 14.996v-0.082z" />
<glyph unicode="&#xe955;" glyph-name="youtube" d="M518.201 787.6c35.021 0 70.943-0.901 105.759-2.376l41.124-1.966 39.363-2.335 36.864-2.499 33.669-2.621c36.536-2.797 70.918-18.389 97.096-44.034s42.471-59.699 46.019-96.172l1.638-17.408 3.072-37.274c2.867-38.626 4.997-80.733 4.997-120.997s-2.13-82.371-4.997-120.996l-3.072-37.274c-0.532-5.98-1.065-11.756-1.638-17.408-3.547-36.479-19.849-70.537-46.035-96.182-26.186-25.649-60.576-41.234-97.12-44.024l-33.587-2.58-36.864-2.54-39.404-2.335-41.124-1.966c-35.234-1.532-70.496-2.322-105.759-2.376-35.267 0.053-70.529 0.844-105.759 2.376l-41.125 1.966-39.363 2.335-36.864 2.54-33.669 2.58c-36.538 2.798-70.92 18.391-97.097 44.036-26.177 25.641-42.471 59.699-46.017 96.17l-1.638 17.408-3.072 37.274c-3.132 40.26-4.799 80.617-4.997 120.996 0 40.264 2.13 82.371 4.997 120.997l3.072 37.274c0.532 5.98 1.065 11.756 1.638 17.408 3.545 36.467 19.833 70.516 46.002 96.16s60.541 41.24 97.072 44.046l33.628 2.621 36.864 2.499 39.404 2.335 41.125 1.966c35.246 1.53 70.521 2.322 105.8 2.376zM436.281 559.248v-198.657c0-18.924 20.48-30.72 36.864-21.299l172.032 99.328c3.744 2.154 6.853 5.259 9.015 8.999 2.159 3.74 3.297 7.983 3.297 12.3 0 4.321-1.139 8.565-3.297 12.3-2.163 3.74-5.272 6.844-9.015 8.999l-172.032 99.288c-3.74 2.157-7.979 3.293-12.292 3.292-4.317-0.001-8.557-1.137-12.292-3.296s-6.84-5.263-8.995-9.002c-2.154-3.738-3.289-7.978-3.285-12.293v0.041z" />
<glyph unicode="&#xe956;" glyph-name="group-user" d="M732.689 650.667c-71.1 0-128.734-56.83-128.734-126.933 0-70.101 57.634-126.933 128.734-126.933s128.734 56.832 128.734 126.933c0 70.103-57.634 126.933-128.734 126.933zM269.242 396.8c-101.57 0-183.908-81.186-183.908-181.333 0-60.087 49.403-108.8 110.345-108.8h367.816c60.941 0 110.345 48.713 110.345 108.8 0 100.147-82.338 181.333-183.906 181.333h-220.691zM731.499 142.933c10.159 18.944 15.91 40.542 15.91 63.467 0 52.668-18.223 101.141-48.785 139.627h111.313c71.095 0 128.734-56.832 128.734-126.933 0-42.061-34.581-76.16-77.244-76.16h-129.929zM379.585 832c-101.57 0-183.908-81.186-183.908-181.333s82.339-181.333 183.908-181.333c101.571 0 183.909 81.186 183.909 181.333s-82.338 181.333-183.909 181.333z" />
<glyph unicode="&#xe957;" glyph-name="plus-circle" d="M512 874.667c-84.386 0-166.878-25.024-237.043-71.906s-124.852-113.519-157.145-191.482c-32.294-77.962-40.743-163.752-24.28-246.516s57.099-158.788 116.77-218.462c59.67-59.669 135.695-100.305 218.46-116.77 82.765-16.461 168.555-8.013 246.515 24.282 77.965 32.294 144.602 86.98 191.484 157.146s71.906 152.657 71.906 237.043c0 56.030-11.038 111.513-32.478 163.278s-52.868 98.801-92.489 138.421c-39.62 39.619-86.656 71.048-138.423 92.49-51.763 21.442-107.247 32.478-163.277 32.478zM512 106.667c-67.507 0-133.502 20.019-189.635 57.523-56.132 37.508-99.881 90.816-125.716 153.186s-32.594 131.004-19.424 197.214c13.17 66.213 45.679 127.033 93.416 174.769s108.556 80.245 174.769 93.416c66.21 13.17 134.844 6.411 197.214-19.424s115.678-69.584 153.186-125.716c37.504-56.132 57.523-122.123 57.523-189.635 0-90.526-35.959-177.348-99.972-241.361-64.013-64.009-150.835-99.972-241.361-99.972zM682.667 490.667h-128v128c0 11.316-4.497 22.168-12.497 30.17s-18.854 12.497-30.17 12.497c-11.315 0-22.17-4.495-30.17-12.497s-12.497-18.854-12.497-30.17v-128h-128c-11.316 0-22.168-4.497-30.17-12.497s-12.497-18.854-12.497-30.17c0-11.315 4.495-22.17 12.497-30.17s18.854-12.497 30.17-12.497h128v-128c0-11.315 4.497-22.17 12.497-30.17s18.854-12.497 30.17-12.497c11.315 0 22.17 4.497 30.17 12.497s12.497 18.854 12.497 30.17v128h128c11.315 0 22.17 4.497 30.17 12.497s12.497 18.854 12.497 30.17c0 11.315-4.497 22.17-12.497 30.17s-18.854 12.497-30.17 12.497z" />
<glyph unicode="&#xe958;" glyph-name="select-window" d="M170.667 21.333c-23.467 0-43.549 8.35-60.245 25.045s-25.059 36.791-25.088 60.288v384c0 23.467 8.363 43.549 25.088 60.245s36.807 25.059 60.245 25.088h85.333v213.333c0 23.467 8.363 43.549 25.088 60.245s36.807 25.059 60.245 25.088h512c23.467 0 43.563-8.363 60.288-25.088s25.075-36.807 25.045-60.245v-384c0-23.467-8.35-43.563-25.045-60.288s-36.791-25.075-60.288-25.045h-85.333v-213.333c0-23.467-8.35-43.563-25.045-60.288s-36.791-25.075-60.288-25.045h-512zM170.667 106.667h512v298.667h-512v-298.667zM768 405.333h85.333v298.667h-512v-128h341.333c23.467 0 43.563-8.363 60.288-25.088s25.075-36.809 25.045-60.245v-85.333z" />
<glyph unicode="&#xe959;" d="M903.443 548.72c-15.085 15.76-30.682 32-36.563 46.28-5.44 13.080-5.76 34.76-6.080 55.76-0.602 39.040-1.242 83.28-32 114.040s-75.002 31.4-114.042 32c-20.998 0.32-42.682 0.64-55.757 6.080-14.24 5.88-30.522 21.48-46.282 36.56-27.6 26.52-58.96 56.56-100.72 56.56s-73.080-30.040-100.72-56.56c-15.76-15.080-32-30.68-46.28-36.56-13-5.44-34.76-5.76-55.76-6.080-39.040-0.6-83.28-1.24-114.040-32s-31.2-75-32-114.040c-0.32-21-0.64-42.68-6.080-55.76-5.88-14.24-21.48-30.52-36.56-46.28-26.52-27.6-56.56-58.96-56.56-100.72s30.040-73.080 56.56-100.72c15.080-15.76 30.68-32.003 36.56-46.282 5.44-13.075 5.76-34.758 6.080-55.757 0.6-39.040 1.24-83.283 32-114.042s75-31.398 114.040-32c21-0.32 42.68-0.64 55.76-6.080 14.24-5.882 30.52-21.478 46.28-36.563 27.6-26.515 58.96-56.557 100.72-56.557s73.080 30.042 100.72 56.557c15.76 15.085 32.003 30.682 46.282 36.563 13.075 5.44 34.758 5.76 55.757 6.080 39.040 0.602 83.283 1.242 114.042 32s31.398 75.002 32 114.042c0.32 20.998 0.64 42.682 6.080 55.757 5.882 14.24 21.478 30.522 36.563 46.282 26.515 27.6 56.557 58.96 56.557 100.72s-30.042 73.080-56.557 100.72zM694.643 521.36l-224.003-224.003c-2.972-2.97-6.501-5.331-10.386-6.944-3.885-1.606-8.049-2.438-12.254-2.438s-8.369 0.832-12.254 2.438c-3.885 1.613-7.414 3.974-10.386 6.944l-96 96.003c-6.004 6.004-9.378 14.148-9.378 22.64s3.373 16.636 9.378 22.64c6.004 6.004 14.148 9.378 22.64 9.378s16.636-3.373 22.64-9.378l73.36-73.4 201.357 201.4c2.976 2.973 6.509 5.332 10.394 6.941 3.878 1.609 8.045 2.437 12.25 2.437s8.371-0.828 12.25-2.437c3.885-1.609 7.418-3.967 10.394-6.941 2.97-2.973 5.331-6.503 6.938-10.387s2.438-8.048 2.438-12.253c0-4.205-0.832-8.368-2.438-12.253s-3.968-7.414-6.938-10.387z" />
<glyph unicode="&#xe95a;" d="M694.643 521.36l-224.003-224.003c-2.972-2.97-6.501-5.331-10.386-6.944-3.885-1.606-8.049-2.438-12.254-2.438s-8.369 0.832-12.254 2.438c-3.885 1.613-7.414 3.974-10.386 6.944l-96 96.003c-6.004 6.004-9.378 14.148-9.378 22.64s3.373 16.636 9.378 22.64c6.004 6.004 14.148 9.378 22.64 9.378s16.636-3.373 22.64-9.378l73.36-73.4 201.357 201.4c2.976 2.973 6.509 5.332 10.394 6.941 3.878 1.609 8.045 2.437 12.25 2.437s8.371-0.828 12.25-2.437c3.885-1.609 7.418-3.967 10.394-6.941 2.97-2.973 5.331-6.503 6.938-10.387s2.438-8.048 2.438-12.253c0-4.205-0.832-8.368-2.438-12.253s-3.968-7.414-6.938-10.387z" />
<glyph unicode="&#xe95b;" d="M903.443 548.72c-15.085 15.76-30.682 32-36.563 46.28-5.44 13.080-5.76 34.76-6.080 55.76-0.602 39.040-1.242 83.28-32 114.040s-75.002 31.4-114.042 32c-20.998 0.32-42.682 0.64-55.757 6.080-14.24 5.88-30.522 21.48-46.282 36.56-27.6 26.52-58.96 56.56-100.72 56.56s-73.080-30.040-100.72-56.56c-15.76-15.080-32-30.68-46.28-36.56-13-5.44-34.76-5.76-55.76-6.080-39.040-0.6-83.28-1.24-114.040-32s-31.2-75-32-114.040c-0.32-21-0.64-42.68-6.080-55.76-5.88-14.24-21.48-30.52-36.56-46.28-26.52-27.6-56.56-58.96-56.56-100.72s30.040-73.080 56.56-100.72c15.080-15.76 30.68-32.003 36.56-46.282 5.44-13.075 5.76-34.758 6.080-55.757 0.6-39.040 1.24-83.283 32-114.042s75-31.398 114.040-32c21-0.32 42.68-0.64 55.76-6.080 14.24-5.882 30.52-21.478 46.28-36.563 27.6-26.515 58.96-56.557 100.72-56.557s73.080 30.042 100.72 56.557c15.76 15.085 32.003 30.682 46.282 36.563 13.075 5.44 34.758 5.76 55.757 6.080 39.040 0.602 83.283 1.242 114.042 32s31.398 75.002 32 114.042c0.32 20.998 0.64 42.682 6.080 55.757 5.882 14.24 21.478 30.522 36.563 46.282 26.515 27.6 56.557 58.96 56.557 100.72s-30.042 73.080-56.557 100.72zM694.643 521.36l-224.003-224.003c-2.972-2.97-6.501-5.331-10.386-6.944-3.885-1.606-8.049-2.438-12.254-2.438s-8.369 0.832-12.254 2.438c-3.885 1.613-7.414 3.974-10.386 6.944l-96 96.003c-6.004 6.004-9.378 14.148-9.378 22.64s3.373 16.636 9.378 22.64c6.004 6.004 14.148 9.378 22.64 9.378s16.636-3.373 22.64-9.378l73.36-73.4 201.357 201.4c2.976 2.973 6.509 5.332 10.394 6.941 3.878 1.609 8.045 2.437 12.25 2.437s8.371-0.828 12.25-2.437c3.885-1.609 7.418-3.967 10.394-6.941 2.97-2.973 5.331-6.503 6.938-10.387s2.438-8.048 2.438-12.253c0-4.205-0.832-8.368-2.438-12.253s-3.968-7.414-6.938-10.387z" />
<glyph unicode="&#xe95c;" glyph-name="top-btn" d="M512 21.333c-23.467 0-42.667 19.2-42.667 42.667v494.507l-183.467-183.467c-16.64-16.64-43.52-16.64-60.16 0s-16.64 43.52 0 60.16l256 256c16.64 16.64 43.52 16.64 60.16 0l256-256c16.64-16.64 16.64-43.52 0-60.16s-43.52-16.64-60.16 0l-183.040 183.040v-494.080c0-23.467-19.2-42.667-42.667-42.667zM768 789.333h-512c-23.467 0-42.667 19.2-42.667 42.667s19.2 42.667 42.667 42.667h512c23.467 0 42.667-19.2 42.667-42.667s-19.2-42.667-42.667-42.667z" />
</font>
</defs>
</svg>
